<?xml version="1.0" encoding="us-ascii" standalone="no"?><svg xmlns="http://www.w3.org/2000/svg" xmlns:xlink="http://www.w3.org/1999/xlink" contentStyleType="text/css" height="511px" preserveAspectRatio="none" style="width:1123px;height:511px;background:#FFFFFF;" version="1.1" viewBox="0 0 1123 511" width="1123px" zoomAndPan="magnify"><defs/><g><g id="elem_TurnNote"><path d="M666,43 L666,71.824 L898,71.824 L898,53 L888,43 L666,43 " fill="#FEFFDD" style="stroke:#181818;stroke-width:0.5;"/><path d="M888,43 L888,53 L898,53 L888,43 " fill="#FEFFDD" style="stroke:#181818;stroke-width:1.0;"/><text fill="#000000" font-family="sans-serif" font-size="13" lengthAdjust="spacing" textLength="142" x="672" y="63.08">Where is the concept of</text><text fill="#000000" font-family="sans-serif" font-size="13" font-weight="bold" lengthAdjust="spacing" textLength="30" x="817" y="63.08">Turn</text><text fill="#000000" font-family="sans-serif" font-size="13" lengthAdjust="spacing" textLength="33" x="850" y="63.08">here?</text></g><g id="elem_ClassNote"><path d="M6,169.41 L6,198.234 L344,198.234 L344,179.41 L334,169.41 L6,169.41 " fill="#FEFFDD" style="stroke:#181818;stroke-width:0.5;"/><path d="M334,169.41 L334,179.41 L344,179.41 L334,169.41 " fill="#FEFFDD" style="stroke:#181818;stroke-width:1.0;"/><text fill="#000000" font-family="sans-serif" font-size="13" lengthAdjust="spacing" textLength="317" x="12" y="189.49">Reevaluate whether these should actually be classes</text></g><!--class Game--><g id="elem_Game"><rect codeLine="8" fill="#F1F1F1" height="100.8157" id="Game" rx="2.5" ry="2.5" style="stroke:#181818;stroke-width:0.5;" width="92" x="539" y="7"/><ellipse cx="563.45" cy="23" fill="#ADD1B2" rx="11" ry="11" style="stroke:#181818;stroke-width:1.0;"/><path d="M563.6844,29.7031 C564.8406,29.7031 565.9344,29.2188 566.7625,28.1875 L565.3406,26.6719 C564.95,27.2188 564.4813,27.5313 563.9188,27.5313 C562.7313,27.5313 561.7156,26.3906 561.7156,23.1563 C561.7156,20 562.7781,18.8281 563.8094,18.8281 C564.4031,18.8281 564.7781,19.125 565.2,19.625 L566.6219,18.0625 C565.95,17.3125 564.9813,16.6719 563.7,16.6719 C561.2781,16.6719 559.1375,18.6406 559.1375,23.2656 C559.1375,27.9063 561.2781,29.7031 563.6844,29.7031 Z " fill="#000000"/><text fill="#000000" font-family="sans-serif" font-size="14" lengthAdjust="spacing" textLength="39" x="579.55" y="29.104">Game</text><line style="stroke:#181818;stroke-width:0.5;" x1="540" x2="630" y1="39" y2="39"/><text fill="#000000" font-family="sans-serif" font-size="14" lengthAdjust="spacing" textLength="58" x="545" y="59.2399">id: string</text><text fill="#000000" font-family="sans-serif" font-size="14" lengthAdjust="spacing" textLength="80" x="545" y="79.5118">stage: Stage</text><text fill="#000000" font-family="sans-serif" font-size="14" lengthAdjust="spacing" textLength="53" x="545" y="99.7838">turn: int</text></g><!--class Player--><g id="elem_Player"><rect codeLine="14" fill="#F1F1F1" height="32" id="Player" rx="2.5" ry="2.5" style="stroke:#181818;stroke-width:0.5;" width="73" x="816.5" y="167.82"/><ellipse cx="831.5" cy="183.82" fill="#ADD1B2" rx="11" ry="11" style="stroke:#181818;stroke-width:1.0;"/><path d="M831.7344,190.5231 C832.8906,190.5231 833.9844,190.0388 834.8125,189.0075 L833.3906,187.4919 C833,188.0388 832.5313,188.3513 831.9688,188.3513 C830.7813,188.3513 829.7656,187.2106 829.7656,183.9763 C829.7656,180.82 830.8281,179.6481 831.8594,179.6481 C832.4531,179.6481 832.8281,179.945 833.25,180.445 L834.6719,178.8825 C834,178.1325 833.0313,177.4919 831.75,177.4919 C829.3281,177.4919 827.1875,179.4606 827.1875,184.0856 C827.1875,188.7263 829.3281,190.5231 831.7344,190.5231 Z " fill="#000000"/><text fill="#000000" font-family="sans-serif" font-size="14" lengthAdjust="spacing" textLength="41" x="845.5" y="189.924">Player</text></g><!--class Pile--><g id="elem_Pile"><rect codeLine="39" fill="#F1F1F1" height="60.2719" id="Pile" rx="2.5" ry="2.5" style="stroke:#181818;stroke-width:0.5;" width="94" x="603" y="351.82"/><ellipse cx="634.65" cy="367.82" fill="#ADD1B2" rx="11" ry="11" style="stroke:#181818;stroke-width:1.0;"/><path d="M634.8844,374.5231 C636.0406,374.5231 637.1344,374.0388 637.9625,373.0075 L636.5406,371.4919 C636.15,372.0388 635.6813,372.3513 635.1188,372.3513 C633.9313,372.3513 632.9156,371.2106 632.9156,367.9763 C632.9156,364.82 633.9781,363.6481 635.0094,363.6481 C635.6031,363.6481 635.9781,363.945 636.4,364.445 L637.8219,362.8825 C637.15,362.1325 636.1813,361.4919 634.9,361.4919 C632.4781,361.4919 630.3375,363.4606 630.3375,368.0856 C630.3375,372.7263 632.4781,374.5231 634.8844,374.5231 Z " fill="#000000"/><text fill="#000000" font-family="sans-serif" font-size="14" lengthAdjust="spacing" textLength="25" x="652.35" y="373.924">Pile</text><line style="stroke:#181818;stroke-width:0.5;" x1="604" x2="696" y1="383.82" y2="383.82"/><text fill="#000000" font-family="sans-serif" font-size="14" lengthAdjust="spacing" textLength="82" x="609" y="404.0599">faceup: bool</text></g><!--class Deck--><g id="elem_Deck"><rect codeLine="21" fill="#F1F1F1" height="32" id="Deck" rx="2.5" ry="2.5" style="stroke:#181818;stroke-width:0.5;" width="65" x="820.5" y="259.82"/><ellipse cx="835.5" cy="275.82" fill="#ADD1B2" rx="11" ry="11" style="stroke:#181818;stroke-width:1.0;"/><path d="M835.7344,282.5231 C836.8906,282.5231 837.9844,282.0388 838.8125,281.0075 L837.3906,279.4919 C837,280.0388 836.5313,280.3513 835.9688,280.3513 C834.7813,280.3513 833.7656,279.2106 833.7656,275.9763 C833.7656,272.82 834.8281,271.6481 835.8594,271.6481 C836.4531,271.6481 836.8281,271.945 837.25,272.445 L838.6719,270.8825 C838,270.1325 837.0313,269.4919 835.75,269.4919 C833.3281,269.4919 831.1875,271.4606 831.1875,276.0856 C831.1875,280.7263 833.3281,282.5231 835.7344,282.5231 Z " fill="#000000"/><text fill="#000000" font-family="sans-serif" font-size="14" lengthAdjust="spacing" textLength="33" x="849.5" y="281.924">Deck</text></g><!--class Discard--><g id="elem_Discard"><rect codeLine="22" fill="#F1F1F1" height="32" id="Discard" rx="2.5" ry="2.5" style="stroke:#181818;stroke-width:0.5;" width="82" x="703" y="259.82"/><ellipse cx="718" cy="275.82" fill="#ADD1B2" rx="11" ry="11" style="stroke:#181818;stroke-width:1.0;"/><path d="M718.2344,282.5231 C719.3906,282.5231 720.4844,282.0388 721.3125,281.0075 L719.8906,279.4919 C719.5,280.0388 719.0313,280.3513 718.4688,280.3513 C717.2813,280.3513 716.2656,279.2106 716.2656,275.9763 C716.2656,272.82 717.3281,271.6481 718.3594,271.6481 C718.9531,271.6481 719.3281,271.945 719.75,272.445 L721.1719,270.8825 C720.5,270.1325 719.5313,269.4919 718.25,269.4919 C715.8281,269.4919 713.6875,271.4606 713.6875,276.0856 C713.6875,280.7263 715.8281,282.5231 718.2344,282.5231 Z " fill="#000000"/><text fill="#000000" font-family="sans-serif" font-size="14" lengthAdjust="spacing" textLength="50" x="732" y="281.924">Discard</text></g><!--class Play Area--><g id="elem_Play Area"><rect codeLine="23" fill="#F1F1F1" height="32" id="Play Area" rx="2.5" ry="2.5" style="stroke:#181818;stroke-width:0.5;" width="93" x="920.5" y="259.82"/><ellipse cx="935.5" cy="275.82" fill="#ADD1B2" rx="11" ry="11" style="stroke:#181818;stroke-width:1.0;"/><path d="M935.7344,282.5231 C936.8906,282.5231 937.9844,282.0388 938.8125,281.0075 L937.3906,279.4919 C937,280.0388 936.5313,280.3513 935.9688,280.3513 C934.7813,280.3513 933.7656,279.2106 933.7656,275.9763 C933.7656,272.82 934.8281,271.6481 935.8594,271.6481 C936.4531,271.6481 936.8281,271.945 937.25,272.445 L938.6719,270.8825 C938,270.1325 937.0313,269.4919 935.75,269.4919 C933.3281,269.4919 931.1875,271.4606 931.1875,276.0856 C931.1875,280.7263 933.3281,282.5231 935.7344,282.5231 Z " fill="#000000"/><text fill="#000000" font-family="sans-serif" font-size="14" lengthAdjust="spacing" textLength="61" x="949.5" y="281.924">Play Area</text></g><!--class Hand--><g id="elem_Hand"><rect codeLine="24" fill="#F1F1F1" height="32" id="Hand" rx="2.5" ry="2.5" style="stroke:#181818;stroke-width:0.5;" width="68" x="1048" y="259.82"/><ellipse cx="1063" cy="275.82" fill="#ADD1B2" rx="11" ry="11" style="stroke:#181818;stroke-width:1.0;"/><path d="M1063.2344,282.5231 C1064.3906,282.5231 1065.4844,282.0388 1066.3125,281.0075 L1064.8906,279.4919 C1064.5,280.0388 1064.0313,280.3513 1063.4688,280.3513 C1062.2813,280.3513 1061.2656,279.2106 1061.2656,275.9763 C1061.2656,272.82 1062.3281,271.6481 1063.3594,271.6481 C1063.9531,271.6481 1064.3281,271.945 1064.75,272.445 L1066.1719,270.8825 C1065.5,270.1325 1064.5313,269.4919 1063.25,269.4919 C1060.8281,269.4919 1058.6875,271.4606 1058.6875,276.0856 C1058.6875,280.7263 1060.8281,282.5231 1063.2344,282.5231 Z " fill="#000000"/><text fill="#000000" font-family="sans-serif" font-size="14" lengthAdjust="spacing" textLength="36" x="1077" y="281.924">Hand</text></g><!--class Supply--><g id="elem_Supply"><rect codeLine="28" fill="#F1F1F1" height="32" id="Supply" rx="2.5" ry="2.5" style="stroke:#181818;stroke-width:0.5;" width="78" x="482" y="167.82"/><ellipse cx="497" cy="183.82" fill="#ADD1B2" rx="11" ry="11" style="stroke:#181818;stroke-width:1.0;"/><path d="M497.2344,190.5231 C498.3906,190.5231 499.4844,190.0388 500.3125,189.0075 L498.8906,187.4919 C498.5,188.0388 498.0313,188.3513 497.4688,188.3513 C496.2813,188.3513 495.2656,187.2106 495.2656,183.9763 C495.2656,180.82 496.3281,179.6481 497.3594,179.6481 C497.9531,179.6481 498.3281,179.945 498.75,180.445 L500.1719,178.8825 C499.5,178.1325 498.5313,177.4919 497.25,177.4919 C494.8281,177.4919 492.6875,179.4606 492.6875,184.0856 C492.6875,188.7263 494.8281,190.5231 497.2344,190.5231 Z " fill="#000000"/><text fill="#000000" font-family="sans-serif" font-size="14" lengthAdjust="spacing" textLength="46" x="511" y="189.924">Supply</text></g><!--class Non-Supply--><g id="elem_Non-Supply"><rect codeLine="29" fill="#F1F1F1" height="32" id="Non-Supply" rx="2.5" ry="2.5" style="stroke:#181818;stroke-width:0.5;" width="110" x="595" y="167.82"/><ellipse cx="610" cy="183.82" fill="#ADD1B2" rx="11" ry="11" style="stroke:#181818;stroke-width:1.0;"/><path d="M610.2344,190.5231 C611.3906,190.5231 612.4844,190.0388 613.3125,189.0075 L611.8906,187.4919 C611.5,188.0388 611.0313,188.3513 610.4688,188.3513 C609.2813,188.3513 608.2656,187.2106 608.2656,183.9763 C608.2656,180.82 609.3281,179.6481 610.3594,179.6481 C610.9531,179.6481 611.3281,179.945 611.75,180.445 L613.1719,178.8825 C612.5,178.1325 611.5313,177.4919 610.25,177.4919 C607.8281,177.4919 605.6875,179.4606 605.6875,184.0856 C605.6875,188.7263 607.8281,190.5231 610.2344,190.5231 Z " fill="#000000"/><text fill="#000000" font-family="sans-serif" font-size="14" lengthAdjust="spacing" textLength="78" x="624" y="189.924">Non-Supply</text></g><!--class Trash--><g id="elem_Trash"><rect codeLine="30" fill="#F1F1F1" height="32" id="Trash" rx="2.5" ry="2.5" style="stroke:#181818;stroke-width:0.5;" width="69" x="378.5" y="167.82"/><ellipse cx="393.5" cy="183.82" fill="#ADD1B2" rx="11" ry="11" style="stroke:#181818;stroke-width:1.0;"/><path d="M393.7344,190.5231 C394.8906,190.5231 395.9844,190.0388 396.8125,189.0075 L395.3906,187.4919 C395,188.0388 394.5313,188.3513 393.9688,188.3513 C392.7813,188.3513 391.7656,187.2106 391.7656,183.9763 C391.7656,180.82 392.8281,179.6481 393.8594,179.6481 C394.4531,179.6481 394.8281,179.945 395.25,180.445 L396.6719,178.8825 C396,178.1325 395.0313,177.4919 393.75,177.4919 C391.3281,177.4919 389.1875,179.4606 389.1875,184.0856 C389.1875,188.7263 391.3281,190.5231 393.7344,190.5231 Z " fill="#000000"/><text fill="#000000" font-family="sans-serif" font-size="14" lengthAdjust="spacing" textLength="37" x="407.5" y="189.924">Trash</text></g><!--class Base--><g id="elem_Base"><rect codeLine="34" fill="#F1F1F1" height="32" id="Base" rx="2.5" ry="2.5" style="stroke:#181818;stroke-width:0.5;" width="64" x="533" y="259.82"/><ellipse cx="548" cy="275.82" fill="#ADD1B2" rx="11" ry="11" style="stroke:#181818;stroke-width:1.0;"/><path d="M548.2344,282.5231 C549.3906,282.5231 550.4844,282.0388 551.3125,281.0075 L549.8906,279.4919 C549.5,280.0388 549.0313,280.3513 548.4688,280.3513 C547.2813,280.3513 546.2656,279.2106 546.2656,275.9763 C546.2656,272.82 547.3281,271.6481 548.3594,271.6481 C548.9531,271.6481 549.3281,271.945 549.75,272.445 L551.1719,270.8825 C550.5,270.1325 549.5313,269.4919 548.25,269.4919 C545.8281,269.4919 543.6875,271.4606 543.6875,276.0856 C543.6875,280.7263 545.8281,282.5231 548.2344,282.5231 Z " fill="#000000"/><text fill="#000000" font-family="sans-serif" font-size="14" lengthAdjust="spacing" textLength="32" x="562" y="281.924">Base</text></g><!--class Kingdom--><g id="elem_Kingdom"><rect codeLine="35" fill="#F1F1F1" height="32" id="Kingdom" rx="2.5" ry="2.5" style="stroke:#181818;stroke-width:0.5;" width="92" x="406" y="259.82"/><ellipse cx="421" cy="275.82" fill="#ADD1B2" rx="11" ry="11" style="stroke:#181818;stroke-width:1.0;"/><path d="M421.2344,282.5231 C422.3906,282.5231 423.4844,282.0388 424.3125,281.0075 L422.8906,279.4919 C422.5,280.0388 422.0313,280.3513 421.4688,280.3513 C420.2813,280.3513 419.2656,279.2106 419.2656,275.9763 C419.2656,272.82 420.3281,271.6481 421.3594,271.6481 C421.9531,271.6481 422.3281,271.945 422.75,272.445 L424.1719,270.8825 C423.5,270.1325 422.5313,269.4919 421.25,269.4919 C418.8281,269.4919 416.6875,271.4606 416.6875,276.0856 C416.6875,280.7263 418.8281,282.5231 421.2344,282.5231 Z " fill="#000000"/><text fill="#000000" font-family="sans-serif" font-size="14" lengthAdjust="spacing" textLength="60" x="435" y="281.924">Kingdom</text></g><!--class Card--><g id="elem_Card"><rect codeLine="40" fill="#F1F1F1" height="32" id="Card" rx="2.5" ry="2.5" style="stroke:#181818;stroke-width:0.5;" width="63" x="935.5" y="472.09"/><ellipse cx="950.5" cy="488.09" fill="#ADD1B2" rx="11" ry="11" style="stroke:#181818;stroke-width:1.0;"/><path d="M950.7344,494.7931 C951.8906,494.7931 952.9844,494.3088 953.8125,493.2775 L952.3906,491.7619 C952,492.3088 951.5313,492.6213 950.9688,492.6213 C949.7813,492.6213 948.7656,491.4806 948.7656,488.2463 C948.7656,485.09 949.8281,483.9181 950.8594,483.9181 C951.4531,483.9181 951.8281,484.215 952.25,484.715 L953.6719,483.1525 C953,482.4025 952.0313,481.7619 950.75,481.7619 C948.3281,481.7619 946.1875,483.7306 946.1875,488.3556 C946.1875,492.9963 948.3281,494.7931 950.7344,494.7931 Z " fill="#000000"/><text fill="#000000" font-family="sans-serif" font-size="14" lengthAdjust="spacing" textLength="31" x="964.5" y="494.194">Card</text></g><path d="M122,38 L122,66.824 A0,0 0 0 0 122,66.824 L504,66.824 A0,0 0 0 0 504,66.824 L504,56.412 L543,73.4079 L504,48.412 L504,48 L494,38 L122,38 A0,0 0 0 0 122,38 " fill="#FEFFDD" style="stroke:#181818;stroke-width:0.5;"/><path d="M494,38 L494,48 L504,48 L494,38 " fill="#FEFFDD" style="stroke:#181818;stroke-width:0.5;"/><text fill="#000000" font-family="sans-serif" font-size="13" lengthAdjust="spacing" textLength="361" x="128" y="58.08">Flesh out a more comprehensive notion of the current state</text><!--reverse link Game to Supply--><g id="link_Game_Supply"><path codeLine="47" d="M549.5,122.1 C549.5,122.1 549.5,167.41 549.5,167.41 " fill="none" id="Game-backto-Supply" style="stroke:#181818;stroke-width:1.0;"/><polygon fill="#181818" points="549.5,109.1,545.5,115.1,549.5,121.1,553.5,115.1,549.5,109.1" style="stroke:#181818;stroke-width:1.0;"/></g><!--reverse link Game to Non-Supply--><g id="link_Game_Non-Supply"><path codeLine="48" d="M619,122.1 C619,122.1 619,167.41 619,167.41 " fill="none" id="Game-backto-Non-Supply" style="stroke:#181818;stroke-width:1.0;"/><polygon fill="#181818" points="619,109.1,615,115.1,619,121.1,623,115.1,619,109.1" style="stroke:#181818;stroke-width:1.0;"/></g><!--reverse link Game to Trash--><g id="link_Game_Trash"><path codeLine="49" d="M524.91,93.09 C524.91,93.09 413,93.09 413,93.09 C413,93.09 413,141.5 413,167.6 " fill="none" id="Game-backto-Trash" style="stroke:#181818;stroke-width:1.0;"/><polygon fill="#181818" points="537.91,93.09,531.91,89.09,525.91,93.09,531.91,97.09,537.91,93.09" style="stroke:#181818;stroke-width:1.0;"/></g><!--reverse link Game to Player--><g id="link_Game_Player"><path codeLine="50" d="M645.38,90.09 C645.38,90.09 853,90.09 853,90.09 C853,90.09 853,140.64 853,167.49 " fill="none" id="Game-backto-Player" style="stroke:#181818;stroke-width:1.0;"/><polygon fill="#181818" points="632.38,90.09,638.38,94.09,644.38,90.09,638.38,86.09,632.38,90.09" style="stroke:#181818;stroke-width:1.0;"/><text fill="#000000" font-family="sans-serif" font-size="13" lengthAdjust="spacing" textLength="22" x="807.175" y="137.1592">2..6</text><text fill="#000000" font-family="sans-serif" font-size="13" lengthAdjust="spacing" textLength="56" x="790.175" y="155.9832">{ordered}</text></g><!--link Player to Play Area--><g id="link_Player_Play Area"><path codeLine="52" d="M889.7,190.09 C923.02,190.09 967,190.09 967,190.09 C967,190.09 967,234.86 967,259.69 " fill="none" id="Player-Play Area" style="stroke:#181818;stroke-width:1.0;"/></g><!--link Player to Hand--><g id="link_Player_Hand"><path codeLine="53" d="M889.79,179.09 C954.53,179.09 1082,179.09 1082,179.09 C1082,179.09 1082,231.81 1082,259.41 " fill="none" id="Player-Hand" style="stroke:#181818;stroke-width:1.0;"/></g><!--link Player to Deck--><g id="link_Player_Deck"><path codeLine="54" d="M853,200.27 C853,217.01 853,242.82 853,259.51 " fill="none" id="Player-Deck" style="stroke:#181818;stroke-width:1.0;"/></g><!--link Player to Discard--><g id="link_Player_Discard"><path codeLine="55" d="M816.13,184.09 C784.85,184.09 745,184.09 745,184.09 C745,184.09 745,233.03 745,259.42 " fill="none" id="Player-Discard" style="stroke:#181818;stroke-width:1.0;"/></g><!--reverse link Deck to Pile--><g id="link_Deck_Pile"><path codeLine="57" d="M853,306.15 C853,306.15 853,372.09 853,372.09 C853,372.09 757.32,372.09 697.34,372.09 " fill="none" id="Deck-backto-Pile" style="stroke:#181818;stroke-width:1.0;"/><polygon fill="#181818" points="853,293.15,849,299.15,853,305.15,857,299.15,853,293.15" style="stroke:#181818;stroke-width:1.0;"/><text fill="#000000" font-family="sans-serif" font-size="13" lengthAdjust="spacing" textLength="7" x="705.1249" y="366.3443">1</text></g><!--reverse link Discard to Pile--><g id="link_Discard_Pile"><path codeLine="58" d="M688.58,271.09 C688.58,271.09 673.5,271.09 673.5,271.09 C673.5,271.09 673.5,318.55 673.5,351.37 " fill="none" id="Discard-backto-Pile" style="stroke:#181818;stroke-width:1.0;"/><polygon fill="#181818" points="701.58,271.09,695.58,267.09,689.58,271.09,695.58,275.09,701.58,271.09" style="stroke:#181818;stroke-width:1.0;"/><text fill="#000000" font-family="sans-serif" font-size="13" lengthAdjust="spacing" textLength="7" x="670.875" y="339.8807">1</text></g><!--link ClassNote to Trash--><g id="link_ClassNote_Trash"><path codeLine="60" d="M344.48,184.09 C356.85,184.09 368.32,184.09 378.21,184.09 " fill="none" id="ClassNote-Trash" style="stroke:#181818;stroke-width:1.0;stroke-dasharray:7.0,7.0;"/></g><!--link ClassNote to Supply--><g id="link_ClassNote_Supply"><path codeLine="61" d="M270,169.29 C270,159.39 270,148.09 270,148.09 C270,148.09 493,148.09 493,148.09 C493,148.09 493,158.17 493,167.63 " fill="none" id="ClassNote-Supply" style="stroke:#181818;stroke-width:1.0;stroke-dasharray:7.0,7.0;"/></g><!--link ClassNote to Non-Supply--><g id="link_ClassNote_Non-Supply"><path codeLine="62" d="M196,169.18 C196,152.66 196,128.09 196,128.09 C196,128.09 607,128.09 607,128.09 C607,128.09 607,150.96 607,167.4 " fill="none" id="ClassNote-Non-Supply" style="stroke:#181818;stroke-width:1.0;stroke-dasharray:7.0,7.0;"/></g><!--link Supply to Base--><g id="link_Supply_Base"><path codeLine="64" d="M546.5,200.27 C546.5,217.01 546.5,242.82 546.5,259.51 " fill="none" id="Supply-Base" style="stroke:#181818;stroke-width:1.0;"/></g><!--link Supply to Kingdom--><g id="link_Supply_Kingdom"><path codeLine="65" d="M490,200.27 C490,217.01 490,242.82 490,259.51 " fill="none" id="Supply-Kingdom" style="stroke:#181818;stroke-width:1.0;"/></g><!--reverse link Base to Pile--><g id="link_Base_Pile"><path codeLine="67" d="M611.19,282.09 C611.19,282.09 626.5,282.09 626.5,282.09 C626.5,282.09 626.5,322.08 626.5,351.45 " fill="none" id="Base-backto-Pile" style="stroke:#181818;stroke-width:1.0;"/><polygon fill="#181818" points="598.19,282.09,604.19,286.09,610.19,282.09,604.19,278.09,598.19,282.09" style="stroke:#181818;stroke-width:1.0;"/><text fill="#000000" font-family="sans-serif" font-size="13" lengthAdjust="spacing" textLength="15" x="604.7188" y="339.9782">1..</text></g><!--reverse link Kingdom to Pile--><g id="link_Kingdom_Pile"><path codeLine="68" d="M452,306.15 C452,306.15 452,372.09 452,372.09 C452,372.09 544,372.09 602.57,372.09 " fill="none" id="Kingdom-backto-Pile" style="stroke:#181818;stroke-width:1.0;"/><polygon fill="#181818" points="452,293.15,448,299.15,452,305.15,456,299.15,452,293.15" style="stroke:#181818;stroke-width:1.0;"/><text fill="#000000" font-family="sans-serif" font-size="13" lengthAdjust="spacing" textLength="22" x="573.0837" y="366.8056">10..</text></g><!--reverse link Non-Supply to Pile--><g id="link_Non-Supply_Pile"><path codeLine="69" d="M650,214.03 C650,214.03 650,351.46 650,351.46 " fill="none" id="Non-Supply-backto-Pile" style="stroke:#181818;stroke-width:1.0;"/><polygon fill="#181818" points="650,201.03,646,207.03,650,213.03,654,207.03,650,201.03" style="stroke:#181818;stroke-width:1.0;"/><text fill="#000000" font-family="sans-serif" font-size="13" lengthAdjust="spacing" textLength="15" x="633.3594" y="339.9904">1..</text></g><!--reverse link Trash to Pile--><g id="link_Trash_Pile"><path codeLine="71" d="M392.25,214.16 C392.25,214.16 392.25,392.09 392.25,392.09 C392.25,392.09 528.31,392.09 602.72,392.09 " fill="none" id="Trash-backto-Pile" style="stroke:#181818;stroke-width:1.0;"/><polygon fill="#181818" points="392.25,201.16,388.25,207.16,392.25,213.16,396.25,207.16,392.25,201.16" style="stroke:#181818;stroke-width:1.0;"/><text fill="#000000" font-family="sans-serif" font-size="13" lengthAdjust="spacing" textLength="7" x="587.9443" y="389.4068">1</text></g><!--reverse link Pile to Card--><g id="link_Pile_Card"><path codeLine="73" d="M711.22,392.09 C711.22,392.09 956.5,392.09 956.5,392.09 C956.5,392.09 956.5,444.42 956.5,471.8 " fill="none" id="Pile-backto-Card" style="stroke:#181818;stroke-width:1.0;"/><polygon fill="#181818" points="698.22,392.09,704.22,396.09,710.22,392.09,704.22,388.09,698.22,392.09" style="stroke:#181818;stroke-width:1.0;"/><text fill="#000000" font-family="sans-serif" font-size="13" lengthAdjust="spacing" textLength="3" x="946.4016" y="422.7576">&#160;</text><text fill="#000000" font-family="sans-serif" font-size="13" lengthAdjust="spacing" textLength="6" x="943.4016" y="441.5816">*</text><text fill="#000000" font-family="sans-serif" font-size="13" lengthAdjust="spacing" textLength="56" x="893.4016" y="460.4056">{ordered}</text></g><!--reverse link Play Area to Card--><g id="link_Play Area_Card"><path codeLine="75" d="M977.5,306.12 C977.5,306.12 977.5,471.73 977.5,471.73 " fill="none" id="Play Area-backto-Card" style="stroke:#181818;stroke-width:1.0;"/><polygon fill="#181818" points="977.5,293.12,973.5,299.12,977.5,305.12,981.5,299.12,977.5,293.12" style="stroke:#181818;stroke-width:1.0;"/><text fill="#000000" font-family="sans-serif" font-size="13" lengthAdjust="spacing" textLength="6" x="974.0781" y="460.2341">*</text></g><!--reverse link Hand to Card--><g id="link_Hand_Card"><path codeLine="76" d="M1082,306.2 C1082,306.2 1082,489.09 1082,489.09 C1082,489.09 1032.77,489.09 998.73,489.09 " fill="none" id="Hand-backto-Card" style="stroke:#181818;stroke-width:1.0;"/><polygon fill="#181818" points="1082,293.2,1078,299.2,1082,305.2,1086,299.2,1082,293.2" style="stroke:#181818;stroke-width:1.0;"/><text fill="#000000" font-family="sans-serif" font-size="13" lengthAdjust="spacing" textLength="6" x="1006.3272" y="484.5101">*</text></g><!--SRC=[TL9DQzmm4BthLmm-BgpxSSZ1X9GafIqKGca2lUGYMxDh4LaoafnWbltlrKZoLyAUx7apRpxUKoi50dQz7w73haRhc7kHkkUMTw2aHZ_s2CRwrZ2cZKSe_hLe4QG3to8qHZVOUp07kAvldWQhhp_LDq0btmhW3WXw2Bo9_HVnbQk1X_-t5aCBItqSWclDe0JmnWzSgH7gq5nnvz35FlVqdnf567xo3k740AIem7ahzJ44plCZLl18dn3wCBq2gJqxJxm_YezXw6a1f4gD3hp1eQ-WDaPHlJV7j20bK-rtR5wMGBg6Mp771RM6MukycB5VN8iBlHw7lbVZmdumUf-mXVvakMilyE-umpdu7SuNfhjGIYVEmJtjVCv-A3n4yqZDgd9PjXyANGjcyC2XCvPixdgBBMedNn42KnfDjFW41cjHUv8-k8DQK3xO50tQxVVJeNEykNH6qwbBqTUol7hM9sD5U4lYN6JZ6Ci6KirAy0MDaYzXj6mLPjCOuMdIbo89b5DRaCMze2IXojKhJFj_nDV7VSnEj30XshU4au6CyBn2MUObSZB3dsTyC-mT9o- -FIQ-zGWzszr6tVWgs4hHLBRB6H9rW_m7]--></g></svg>