<?xml version="1.0" encoding="us-ascii" standalone="no"?><svg xmlns="http://www.w3.org/2000/svg" xmlns:xlink="http://www.w3.org/1999/xlink" contentStyleType="text/css" height="559px" preserveAspectRatio="none" style="width:1123px;height:559px;background:#FFFFFF;" version="1.1" viewBox="0 0 1123 559" width="1123px" zoomAndPan="magnify"><defs/><g><g id="elem_TurnNote"><path d="M666,42.99 L666,71.814 L898,71.814 L898,52.99 L888,42.99 L666,42.99 " fill="#FEFFDD" style="stroke:#181818;stroke-width:0.5;"/><path d="M888,42.99 L888,52.99 L898,52.99 L888,42.99 " fill="#FEFFDD" style="stroke:#181818;stroke-width:1.0;"/><text fill="#000000" font-family="sans-serif" font-size="13" lengthAdjust="spacing" textLength="142" x="672" y="63.07">Where is the concept of</text><text fill="#000000" font-family="sans-serif" font-size="13" font-weight="bold" lengthAdjust="spacing" textLength="30" x="817" y="63.07">Turn</text><text fill="#000000" font-family="sans-serif" font-size="13" lengthAdjust="spacing" textLength="33" x="850" y="63.07">here?</text></g><g id="elem_ClassNote"><path d="M6,193.67 L6,222.494 L344,222.494 L344,203.67 L334,193.67 L6,193.67 " fill="#FEFFDD" style="stroke:#181818;stroke-width:0.5;"/><path d="M334,193.67 L334,203.67 L344,203.67 L334,193.67 " fill="#FEFFDD" style="stroke:#181818;stroke-width:1.0;"/><text fill="#000000" font-family="sans-serif" font-size="13" lengthAdjust="spacing" textLength="317" x="12" y="213.75">Reevaluate whether these should actually be classes</text></g><!--class Game--><g id="elem_Game"><rect codeLine="8" fill="#F1F1F1" height="100.8157" id="Game" rx="2.5" ry="2.5" style="stroke:#181818;stroke-width:0.5;" width="92" x="539" y="7"/><ellipse cx="563.45" cy="23" fill="#ADD1B2" rx="11" ry="11" style="stroke:#181818;stroke-width:1.0;"/><path d="M563.6844,29.7031 C564.8406,29.7031 565.9344,29.2188 566.7625,28.1875 L565.3406,26.6719 C564.95,27.2188 564.4813,27.5313 563.9188,27.5313 C562.7313,27.5313 561.7156,26.3906 561.7156,23.1563 C561.7156,20 562.7781,18.8281 563.8094,18.8281 C564.4031,18.8281 564.7781,19.125 565.2,19.625 L566.6219,18.0625 C565.95,17.3125 564.9813,16.6719 563.7,16.6719 C561.2781,16.6719 559.1375,18.6406 559.1375,23.2656 C559.1375,27.9063 561.2781,29.7031 563.6844,29.7031 Z " fill="#000000"/><text fill="#000000" font-family="sans-serif" font-size="14" lengthAdjust="spacing" textLength="39" x="579.55" y="29.104">Game</text><line style="stroke:#181818;stroke-width:0.5;" x1="540" x2="630" y1="39" y2="39"/><text fill="#000000" font-family="sans-serif" font-size="14" lengthAdjust="spacing" textLength="58" x="545" y="59.2399">id: string</text><text fill="#000000" font-family="sans-serif" font-size="14" lengthAdjust="spacing" textLength="80" x="545" y="79.5118">stage: Stage</text><text fill="#000000" font-family="sans-serif" font-size="14" lengthAdjust="spacing" textLength="53" x="545" y="99.7838">turn: int</text></g><!--class Player--><g id="elem_Player"><rect codeLine="14" fill="#F1F1F1" height="80.5438" id="Player" rx="2.5" ry="2.5" style="stroke:#181818;stroke-width:0.5;" width="95" x="805.5" y="167.81"/><ellipse cx="830.4" cy="183.81" fill="#ADD1B2" rx="11" ry="11" style="stroke:#181818;stroke-width:1.0;"/><path d="M830.6344,190.5131 C831.7906,190.5131 832.8844,190.0288 833.7125,188.9975 L832.2906,187.4819 C831.9,188.0288 831.4313,188.3413 830.8688,188.3413 C829.6813,188.3413 828.6656,187.2006 828.6656,183.9663 C828.6656,180.81 829.7281,179.6381 830.7594,179.6381 C831.3531,179.6381 831.7281,179.935 832.15,180.435 L833.5719,178.8725 C832.9,178.1225 831.9313,177.4819 830.65,177.4819 C828.2281,177.4819 826.0875,179.4506 826.0875,184.0756 C826.0875,188.7163 828.2281,190.5131 830.6344,190.5131 Z " fill="#000000"/><text fill="#000000" font-family="sans-serif" font-size="14" lengthAdjust="spacing" textLength="41" x="846.6" y="189.914">Player</text><line style="stroke:#181818;stroke-width:0.5;" x1="806.5" x2="899.5" y1="199.81" y2="199.81"/><text fill="#000000" font-family="sans-serif" font-size="14" lengthAdjust="spacing" textLength="58" x="811.5" y="220.0499">id: string</text><text fill="#000000" font-family="sans-serif" font-size="14" lengthAdjust="spacing" textLength="83" x="811.5" y="240.3218">name: string</text></g><!--class Pile--><g id="elem_Pile"><rect codeLine="42" fill="#F1F1F1" height="60.2719" id="Pile" rx="2.5" ry="2.5" style="stroke:#181818;stroke-width:0.5;" width="94" x="603" y="400.36"/><ellipse cx="634.65" cy="416.36" fill="#ADD1B2" rx="11" ry="11" style="stroke:#181818;stroke-width:1.0;"/><path d="M634.8844,423.0631 C636.0406,423.0631 637.1344,422.5788 637.9625,421.5475 L636.5406,420.0319 C636.15,420.5788 635.6813,420.8913 635.1188,420.8913 C633.9313,420.8913 632.9156,419.7506 632.9156,416.5163 C632.9156,413.36 633.9781,412.1881 635.0094,412.1881 C635.6031,412.1881 635.9781,412.485 636.4,412.985 L637.8219,411.4225 C637.15,410.6725 636.1813,410.0319 634.9,410.0319 C632.4781,410.0319 630.3375,412.0006 630.3375,416.6256 C630.3375,421.2663 632.4781,423.0631 634.8844,423.0631 Z " fill="#000000"/><text fill="#000000" font-family="sans-serif" font-size="14" lengthAdjust="spacing" textLength="25" x="652.35" y="422.464">Pile</text><line style="stroke:#181818;stroke-width:0.5;" x1="604" x2="696" y1="432.36" y2="432.36"/><text fill="#000000" font-family="sans-serif" font-size="14" lengthAdjust="spacing" textLength="82" x="609" y="452.5999">faceup: bool</text></g><!--class Deck--><g id="elem_Deck"><rect codeLine="24" fill="#F1F1F1" height="32" id="Deck" rx="2.5" ry="2.5" style="stroke:#181818;stroke-width:0.5;" width="65" x="820.5" y="308.36"/><ellipse cx="835.5" cy="324.36" fill="#ADD1B2" rx="11" ry="11" style="stroke:#181818;stroke-width:1.0;"/><path d="M835.7344,331.0631 C836.8906,331.0631 837.9844,330.5788 838.8125,329.5475 L837.3906,328.0319 C837,328.5788 836.5313,328.8913 835.9688,328.8913 C834.7813,328.8913 833.7656,327.7506 833.7656,324.5163 C833.7656,321.36 834.8281,320.1881 835.8594,320.1881 C836.4531,320.1881 836.8281,320.485 837.25,320.985 L838.6719,319.4225 C838,318.6725 837.0313,318.0319 835.75,318.0319 C833.3281,318.0319 831.1875,320.0006 831.1875,324.6256 C831.1875,329.2663 833.3281,331.0631 835.7344,331.0631 Z " fill="#000000"/><text fill="#000000" font-family="sans-serif" font-size="14" lengthAdjust="spacing" textLength="33" x="849.5" y="330.464">Deck</text></g><!--class Discard--><g id="elem_Discard"><rect codeLine="25" fill="#F1F1F1" height="32" id="Discard" rx="2.5" ry="2.5" style="stroke:#181818;stroke-width:0.5;" width="82" x="703" y="308.36"/><ellipse cx="718" cy="324.36" fill="#ADD1B2" rx="11" ry="11" style="stroke:#181818;stroke-width:1.0;"/><path d="M718.2344,331.0631 C719.3906,331.0631 720.4844,330.5788 721.3125,329.5475 L719.8906,328.0319 C719.5,328.5788 719.0313,328.8913 718.4688,328.8913 C717.2813,328.8913 716.2656,327.7506 716.2656,324.5163 C716.2656,321.36 717.3281,320.1881 718.3594,320.1881 C718.9531,320.1881 719.3281,320.485 719.75,320.985 L721.1719,319.4225 C720.5,318.6725 719.5313,318.0319 718.25,318.0319 C715.8281,318.0319 713.6875,320.0006 713.6875,324.6256 C713.6875,329.2663 715.8281,331.0631 718.2344,331.0631 Z " fill="#000000"/><text fill="#000000" font-family="sans-serif" font-size="14" lengthAdjust="spacing" textLength="50" x="732" y="330.464">Discard</text></g><!--class Play Area--><g id="elem_Play Area"><rect codeLine="26" fill="#F1F1F1" height="32" id="Play Area" rx="2.5" ry="2.5" style="stroke:#181818;stroke-width:0.5;" width="93" x="920.5" y="308.36"/><ellipse cx="935.5" cy="324.36" fill="#ADD1B2" rx="11" ry="11" style="stroke:#181818;stroke-width:1.0;"/><path d="M935.7344,331.0631 C936.8906,331.0631 937.9844,330.5788 938.8125,329.5475 L937.3906,328.0319 C937,328.5788 936.5313,328.8913 935.9688,328.8913 C934.7813,328.8913 933.7656,327.7506 933.7656,324.5163 C933.7656,321.36 934.8281,320.1881 935.8594,320.1881 C936.4531,320.1881 936.8281,320.485 937.25,320.985 L938.6719,319.4225 C938,318.6725 937.0313,318.0319 935.75,318.0319 C933.3281,318.0319 931.1875,320.0006 931.1875,324.6256 C931.1875,329.2663 933.3281,331.0631 935.7344,331.0631 Z " fill="#000000"/><text fill="#000000" font-family="sans-serif" font-size="14" lengthAdjust="spacing" textLength="61" x="949.5" y="330.464">Play Area</text></g><!--class Hand--><g id="elem_Hand"><rect codeLine="27" fill="#F1F1F1" height="32" id="Hand" rx="2.5" ry="2.5" style="stroke:#181818;stroke-width:0.5;" width="68" x="1048" y="308.36"/><ellipse cx="1063" cy="324.36" fill="#ADD1B2" rx="11" ry="11" style="stroke:#181818;stroke-width:1.0;"/><path d="M1063.2344,331.0631 C1064.3906,331.0631 1065.4844,330.5788 1066.3125,329.5475 L1064.8906,328.0319 C1064.5,328.5788 1064.0313,328.8913 1063.4688,328.8913 C1062.2813,328.8913 1061.2656,327.7506 1061.2656,324.5163 C1061.2656,321.36 1062.3281,320.1881 1063.3594,320.1881 C1063.9531,320.1881 1064.3281,320.485 1064.75,320.985 L1066.1719,319.4225 C1065.5,318.6725 1064.5313,318.0319 1063.25,318.0319 C1060.8281,318.0319 1058.6875,320.0006 1058.6875,324.6256 C1058.6875,329.2663 1060.8281,331.0631 1063.2344,331.0631 Z " fill="#000000"/><text fill="#000000" font-family="sans-serif" font-size="14" lengthAdjust="spacing" textLength="36" x="1077" y="330.464">Hand</text></g><!--class Supply--><g id="elem_Supply"><rect codeLine="31" fill="#F1F1F1" height="32" id="Supply" rx="2.5" ry="2.5" style="stroke:#181818;stroke-width:0.5;" width="78" x="482" y="192.09"/><ellipse cx="497" cy="208.09" fill="#ADD1B2" rx="11" ry="11" style="stroke:#181818;stroke-width:1.0;"/><path d="M497.2344,214.7931 C498.3906,214.7931 499.4844,214.3087 500.3125,213.2775 L498.8906,211.7619 C498.5,212.3087 498.0313,212.6212 497.4688,212.6212 C496.2813,212.6212 495.2656,211.4806 495.2656,208.2462 C495.2656,205.09 496.3281,203.9181 497.3594,203.9181 C497.9531,203.9181 498.3281,204.215 498.75,204.715 L500.1719,203.1525 C499.5,202.4025 498.5313,201.7619 497.25,201.7619 C494.8281,201.7619 492.6875,203.7306 492.6875,208.3556 C492.6875,212.9962 494.8281,214.7931 497.2344,214.7931 Z " fill="#000000"/><text fill="#000000" font-family="sans-serif" font-size="14" lengthAdjust="spacing" textLength="46" x="511" y="214.194">Supply</text></g><!--class Non-Supply--><g id="elem_Non-Supply"><rect codeLine="32" fill="#F1F1F1" height="32" id="Non-Supply" rx="2.5" ry="2.5" style="stroke:#181818;stroke-width:0.5;" width="110" x="595" y="192.09"/><ellipse cx="610" cy="208.09" fill="#ADD1B2" rx="11" ry="11" style="stroke:#181818;stroke-width:1.0;"/><path d="M610.2344,214.7931 C611.3906,214.7931 612.4844,214.3087 613.3125,213.2775 L611.8906,211.7619 C611.5,212.3087 611.0313,212.6212 610.4688,212.6212 C609.2813,212.6212 608.2656,211.4806 608.2656,208.2462 C608.2656,205.09 609.3281,203.9181 610.3594,203.9181 C610.9531,203.9181 611.3281,204.215 611.75,204.715 L613.1719,203.1525 C612.5,202.4025 611.5313,201.7619 610.25,201.7619 C607.8281,201.7619 605.6875,203.7306 605.6875,208.3556 C605.6875,212.9962 607.8281,214.7931 610.2344,214.7931 Z " fill="#000000"/><text fill="#000000" font-family="sans-serif" font-size="14" lengthAdjust="spacing" textLength="78" x="624" y="214.194">Non-Supply</text></g><!--class Trash--><g id="elem_Trash"><rect codeLine="33" fill="#F1F1F1" height="32" id="Trash" rx="2.5" ry="2.5" style="stroke:#181818;stroke-width:0.5;" width="69" x="378.5" y="192.09"/><ellipse cx="393.5" cy="208.09" fill="#ADD1B2" rx="11" ry="11" style="stroke:#181818;stroke-width:1.0;"/><path d="M393.7344,214.7931 C394.8906,214.7931 395.9844,214.3087 396.8125,213.2775 L395.3906,211.7619 C395,212.3087 394.5313,212.6212 393.9688,212.6212 C392.7813,212.6212 391.7656,211.4806 391.7656,208.2462 C391.7656,205.09 392.8281,203.9181 393.8594,203.9181 C394.4531,203.9181 394.8281,204.215 395.25,204.715 L396.6719,203.1525 C396,202.4025 395.0313,201.7619 393.75,201.7619 C391.3281,201.7619 389.1875,203.7306 389.1875,208.3556 C389.1875,212.9962 391.3281,214.7931 393.7344,214.7931 Z " fill="#000000"/><text fill="#000000" font-family="sans-serif" font-size="14" lengthAdjust="spacing" textLength="37" x="407.5" y="214.194">Trash</text></g><!--class Base--><g id="elem_Base"><rect codeLine="37" fill="#F1F1F1" height="32" id="Base" rx="2.5" ry="2.5" style="stroke:#181818;stroke-width:0.5;" width="64" x="533" y="308.36"/><ellipse cx="548" cy="324.36" fill="#ADD1B2" rx="11" ry="11" style="stroke:#181818;stroke-width:1.0;"/><path d="M548.2344,331.0631 C549.3906,331.0631 550.4844,330.5788 551.3125,329.5475 L549.8906,328.0319 C549.5,328.5788 549.0313,328.8913 548.4688,328.8913 C547.2813,328.8913 546.2656,327.7506 546.2656,324.5163 C546.2656,321.36 547.3281,320.1881 548.3594,320.1881 C548.9531,320.1881 549.3281,320.485 549.75,320.985 L551.1719,319.4225 C550.5,318.6725 549.5313,318.0319 548.25,318.0319 C545.8281,318.0319 543.6875,320.0006 543.6875,324.6256 C543.6875,329.2663 545.8281,331.0631 548.2344,331.0631 Z " fill="#000000"/><text fill="#000000" font-family="sans-serif" font-size="14" lengthAdjust="spacing" textLength="32" x="562" y="330.464">Base</text></g><!--class Kingdom--><g id="elem_Kingdom"><rect codeLine="38" fill="#F1F1F1" height="32" id="Kingdom" rx="2.5" ry="2.5" style="stroke:#181818;stroke-width:0.5;" width="92" x="406" y="308.36"/><ellipse cx="421" cy="324.36" fill="#ADD1B2" rx="11" ry="11" style="stroke:#181818;stroke-width:1.0;"/><path d="M421.2344,331.0631 C422.3906,331.0631 423.4844,330.5788 424.3125,329.5475 L422.8906,328.0319 C422.5,328.5788 422.0313,328.8913 421.4688,328.8913 C420.2813,328.8913 419.2656,327.7506 419.2656,324.5163 C419.2656,321.36 420.3281,320.1881 421.3594,320.1881 C421.9531,320.1881 422.3281,320.485 422.75,320.985 L424.1719,319.4225 C423.5,318.6725 422.5313,318.0319 421.25,318.0319 C418.8281,318.0319 416.6875,320.0006 416.6875,324.6256 C416.6875,329.2663 418.8281,331.0631 421.2344,331.0631 Z " fill="#000000"/><text fill="#000000" font-family="sans-serif" font-size="14" lengthAdjust="spacing" textLength="60" x="435" y="330.464">Kingdom</text></g><!--class Card--><g id="elem_Card"><rect codeLine="43" fill="#F1F1F1" height="32" id="Card" rx="2.5" ry="2.5" style="stroke:#181818;stroke-width:0.5;" width="63" x="935.5" y="520.63"/><ellipse cx="950.5" cy="536.63" fill="#ADD1B2" rx="11" ry="11" style="stroke:#181818;stroke-width:1.0;"/><path d="M950.7344,543.3331 C951.8906,543.3331 952.9844,542.8488 953.8125,541.8175 L952.3906,540.3019 C952,540.8488 951.5313,541.1613 950.9688,541.1613 C949.7813,541.1613 948.7656,540.0206 948.7656,536.7863 C948.7656,533.63 949.8281,532.4581 950.8594,532.4581 C951.4531,532.4581 951.8281,532.755 952.25,533.255 L953.6719,531.6925 C953,530.9425 952.0313,530.3019 950.75,530.3019 C948.3281,530.3019 946.1875,532.2706 946.1875,536.8956 C946.1875,541.5363 948.3281,543.3331 950.7344,543.3331 Z " fill="#000000"/><text fill="#000000" font-family="sans-serif" font-size="14" lengthAdjust="spacing" textLength="31" x="964.5" y="542.734">Card</text></g><path d="M122,37.99 L122,66.814 A0,0 0 0 0 122,66.814 L504,66.814 A0,0 0 0 0 504,66.814 L504,56.402 L543,73.4079 L504,48.402 L504,47.99 L494,37.99 L122,37.99 A0,0 0 0 0 122,37.99 " fill="#FEFFDD" style="stroke:#181818;stroke-width:0.5;"/><path d="M494,37.99 L494,47.99 L504,47.99 L494,37.99 " fill="#FEFFDD" style="stroke:#181818;stroke-width:0.5;"/><text fill="#000000" font-family="sans-serif" font-size="13" lengthAdjust="spacing" textLength="361" x="128" y="58.07">Flesh out a more comprehensive notion of the current state</text><!--reverse link Game to Supply--><g id="link_Game_Supply"><path codeLine="50" d="M549.5,122 C549.5,122 549.5,191.63 549.5,191.63 " fill="none" id="Game-backto-Supply" style="stroke:#181818;stroke-width:1.0;"/><polygon fill="#181818" points="549.5,109,545.5,115,549.5,121,553.5,115,549.5,109" style="stroke:#181818;stroke-width:1.0;"/></g><!--reverse link Game to Non-Supply--><g id="link_Game_Non-Supply"><path codeLine="51" d="M613,122 C613,122 613,191.63 613,191.63 " fill="none" id="Game-backto-Non-Supply" style="stroke:#181818;stroke-width:1.0;"/><polygon fill="#181818" points="613,109,609,115,613,121,617,115,613,109" style="stroke:#181818;stroke-width:1.0;"/></g><!--reverse link Game to Trash--><g id="link_Game_Trash"><path codeLine="52" d="M524.91,92.63 C524.91,92.63 413,92.63 413,92.63 C413,92.63 413,160.31 413,192.03 " fill="none" id="Game-backto-Trash" style="stroke:#181818;stroke-width:1.0;"/><polygon fill="#181818" points="537.91,92.63,531.91,88.63,525.91,92.63,531.91,96.63,537.91,92.63" style="stroke:#181818;stroke-width:1.0;"/></g><!--reverse link Game to Player--><g id="link_Game_Player"><path codeLine="53" d="M622,122.14 C622,122.14 622,174.63 622,174.63 C622,174.63 737.48,174.63 805.14,174.63 " fill="none" id="Game-backto-Player" style="stroke:#181818;stroke-width:1.0;"/><polygon fill="#181818" points="622,109.14,618,115.14,622,121.14,626,115.14,622,109.14" style="stroke:#181818;stroke-width:1.0;"/><text fill="#000000" font-family="sans-serif" font-size="13" lengthAdjust="spacing" textLength="22" x="758.3169" y="147.3859">2..6</text><text fill="#000000" font-family="sans-serif" font-size="13" lengthAdjust="spacing" textLength="56" x="741.3169" y="166.2099">{ordered}</text></g><!--link Player to Play Area--><g id="link_Player_Play Area"><path codeLine="55" d="M893,248.85 C893,282.46 893,324.63 893,324.63 C893,324.63 905.45,324.63 920.13,324.63 " fill="none" id="Player-Play Area" style="stroke:#181818;stroke-width:1.0;"/></g><!--link Player to Hand--><g id="link_Player_Hand"><path codeLine="56" d="M900.73,208.63 C967.84,208.63 1082,208.63 1082,208.63 C1082,208.63 1082,276.47 1082,308.27 " fill="none" id="Player-Hand" style="stroke:#181818;stroke-width:1.0;"/></g><!--link Player to Deck--><g id="link_Player_Deck"><path codeLine="57" d="M853,248.75 C853,269.18 853,292.79 853,308.11 " fill="none" id="Player-Deck" style="stroke:#181818;stroke-width:1.0;"/></g><!--link Player to Discard--><g id="link_Player_Discard"><path codeLine="58" d="M813,248.85 C813,282.46 813,324.63 813,324.63 C813,324.63 800.03,324.63 785.33,324.63 " fill="none" id="Player-Discard" style="stroke:#181818;stroke-width:1.0;"/></g><!--reverse link Deck to Pile--><g id="link_Deck_Pile"><path codeLine="60" d="M853,354.69 C853,354.69 853,420.63 853,420.63 C853,420.63 757.32,420.63 697.34,420.63 " fill="none" id="Deck-backto-Pile" style="stroke:#181818;stroke-width:1.0;"/><polygon fill="#181818" points="853,341.69,849,347.69,853,353.69,857,347.69,853,341.69" style="stroke:#181818;stroke-width:1.0;"/><text fill="#000000" font-family="sans-serif" font-size="13" lengthAdjust="spacing" textLength="7" x="705.1249" y="414.8843">1</text></g><!--reverse link Discard to Pile--><g id="link_Discard_Pile"><path codeLine="61" d="M688.58,319.63 C688.58,319.63 673.5,319.63 673.5,319.63 C673.5,319.63 673.5,367.09 673.5,399.91 " fill="none" id="Discard-backto-Pile" style="stroke:#181818;stroke-width:1.0;"/><polygon fill="#181818" points="701.58,319.63,695.58,315.63,689.58,319.63,695.58,323.63,701.58,319.63" style="stroke:#181818;stroke-width:1.0;"/><text fill="#000000" font-family="sans-serif" font-size="13" lengthAdjust="spacing" textLength="7" x="670.875" y="388.4207">1</text></g><!--link ClassNote to Trash--><g id="link_ClassNote_Trash"><path codeLine="63" d="M344.48,208.63 C356.85,208.63 368.32,208.63 378.21,208.63 " fill="none" id="ClassNote-Trash" style="stroke:#181818;stroke-width:1.0;stroke-dasharray:7.0,7.0;"/></g><!--link ClassNote to Supply--><g id="link_ClassNote_Supply"><path codeLine="64" d="M270,193.42 C270,189.65 270,186.63 270,186.63 C270,186.63 493,186.63 493,186.63 C493,186.63 493,188.73 493,191.61 " fill="none" id="ClassNote-Supply" style="stroke:#181818;stroke-width:1.0;stroke-dasharray:7.0,7.0;"/></g><!--link ClassNote to Non-Supply--><g id="link_ClassNote_Non-Supply"><path codeLine="65" d="M196,193.39 C196,186.87 196,180.63 196,180.63 C196,180.63 604,180.63 604,180.63 C604,180.63 604,185.89 604,191.8 " fill="none" id="ClassNote-Non-Supply" style="stroke:#181818;stroke-width:1.0;stroke-dasharray:7.0,7.0;"/></g><!--link Supply to Base--><g id="link_Supply_Base"><path codeLine="67" d="M546.5,224.25 C546.5,246.34 546.5,285.74 546.5,307.95 " fill="none" id="Supply-Base" style="stroke:#181818;stroke-width:1.0;"/></g><!--link Supply to Kingdom--><g id="link_Supply_Kingdom"><path codeLine="68" d="M490,224.25 C490,246.34 490,285.74 490,307.95 " fill="none" id="Supply-Kingdom" style="stroke:#181818;stroke-width:1.0;"/></g><!--reverse link Base to Pile--><g id="link_Base_Pile"><path codeLine="70" d="M611.19,330.63 C611.19,330.63 626.5,330.63 626.5,330.63 C626.5,330.63 626.5,370.62 626.5,399.99 " fill="none" id="Base-backto-Pile" style="stroke:#181818;stroke-width:1.0;"/><polygon fill="#181818" points="598.19,330.63,604.19,334.63,610.19,330.63,604.19,326.63,598.19,330.63" style="stroke:#181818;stroke-width:1.0;"/><text fill="#000000" font-family="sans-serif" font-size="13" lengthAdjust="spacing" textLength="15" x="604.7188" y="388.5182">1..</text></g><!--reverse link Kingdom to Pile--><g id="link_Kingdom_Pile"><path codeLine="71" d="M452,354.69 C452,354.69 452,420.63 452,420.63 C452,420.63 544,420.63 602.57,420.63 " fill="none" id="Kingdom-backto-Pile" style="stroke:#181818;stroke-width:1.0;"/><polygon fill="#181818" points="452,341.69,448,347.69,452,353.69,456,347.69,452,341.69" style="stroke:#181818;stroke-width:1.0;"/><text fill="#000000" font-family="sans-serif" font-size="13" lengthAdjust="spacing" textLength="22" x="573.0837" y="415.3456">10..</text></g><!--reverse link Non-Supply to Pile--><g id="link_Non-Supply_Pile"><path codeLine="72" d="M650,238.44 C650,238.44 650,399.91 650,399.91 " fill="none" id="Non-Supply-backto-Pile" style="stroke:#181818;stroke-width:1.0;"/><polygon fill="#181818" points="650,225.44,646,231.44,650,237.44,654,231.44,650,225.44" style="stroke:#181818;stroke-width:1.0;"/><text fill="#000000" font-family="sans-serif" font-size="13" lengthAdjust="spacing" textLength="15" x="633.3594" y="388.4207">1..</text></g><!--reverse link Trash to Pile--><g id="link_Trash_Pile"><path codeLine="74" d="M392.25,238.44 C392.25,238.44 392.25,440.63 392.25,440.63 C392.25,440.63 528.31,440.63 602.72,440.63 " fill="none" id="Trash-backto-Pile" style="stroke:#181818;stroke-width:1.0;"/><polygon fill="#181818" points="392.25,225.44,388.25,231.44,392.25,237.44,396.25,231.44,392.25,225.44" style="stroke:#181818;stroke-width:1.0;"/><text fill="#000000" font-family="sans-serif" font-size="13" lengthAdjust="spacing" textLength="7" x="587.9443" y="437.9468">1</text></g><!--reverse link Pile to Card--><g id="link_Pile_Card"><path codeLine="76" d="M711.22,440.63 C711.22,440.63 956.5,440.63 956.5,440.63 C956.5,440.63 956.5,492.96 956.5,520.34 " fill="none" id="Pile-backto-Card" style="stroke:#181818;stroke-width:1.0;"/><polygon fill="#181818" points="698.22,440.63,704.22,444.63,710.22,440.63,704.22,436.63,698.22,440.63" style="stroke:#181818;stroke-width:1.0;"/><text fill="#000000" font-family="sans-serif" font-size="13" lengthAdjust="spacing" textLength="3" x="946.4016" y="471.2976">&#160;</text><text fill="#000000" font-family="sans-serif" font-size="13" lengthAdjust="spacing" textLength="6" x="943.4016" y="490.1216">*</text><text fill="#000000" font-family="sans-serif" font-size="13" lengthAdjust="spacing" textLength="56" x="893.4016" y="508.9456">{ordered}</text></g><!--reverse link Play Area to Card--><g id="link_Play Area_Card"><path codeLine="78" d="M977.5,354.66 C977.5,354.66 977.5,520.27 977.5,520.27 " fill="none" id="Play Area-backto-Card" style="stroke:#181818;stroke-width:1.0;"/><polygon fill="#181818" points="977.5,341.66,973.5,347.66,977.5,353.66,981.5,347.66,977.5,341.66" style="stroke:#181818;stroke-width:1.0;"/><text fill="#000000" font-family="sans-serif" font-size="13" lengthAdjust="spacing" textLength="6" x="974.0781" y="508.7741">*</text></g><!--reverse link Hand to Card--><g id="link_Hand_Card"><path codeLine="79" d="M1082,354.74 C1082,354.74 1082,537.63 1082,537.63 C1082,537.63 1032.77,537.63 998.73,537.63 " fill="none" id="Hand-backto-Card" style="stroke:#181818;stroke-width:1.0;"/><polygon fill="#181818" points="1082,341.74,1078,347.74,1082,353.74,1086,347.74,1082,341.74" style="stroke:#181818;stroke-width:1.0;"/><text fill="#000000" font-family="sans-serif" font-size="13" lengthAdjust="spacing" textLength="6" x="1006.3272" y="533.0501">*</text></g><!--SRC=[TL9DQzmm4BthLmm-BgpxSSZ1X9GafIqKGca2lUGYMxDh4LaoafnWmlxtQYJvAykUxFTctdmzjL8WODVx4JhiQhIEkHUfUsvv1qfgz6EFOAnl3MFQU8JYNuiMGJhmBK9ZT8Ez1tE0w_hcQR3w-bDz0vJohG3kWAY7e9lKVn5VkHfu-7zhCPImLCSXkDOCIW1l_C2L6g4EnHLt3bsiSq__gL2auIVl4DuPW1GLE6-bFWRWF3zY1O_q2T27xXL8xTbfqlrHV0nDpvGwr9lXaYrLwdBW3Gvz1RKnYiBU7DFq54ovtx5vMO1q3RTYnWNrXLkBl9YvNroB2xKUXxvNuw9-C7gVk4N-PBbhB-ZlkCCP_0uh2TDTIAKLPt1FCv-oMGeFqLawTLMvVDCV2bqBPl30eJEMta3NMsnHE_cA49JIQ9B5zp5OYzgJBy4wr8BYmSFetcw_dnQTyMRJcKshBabVo_BgMRyRAy934wSYkyfOTfToLWTVs7Zo1KRBLZ2RneXFdRuKwK0vj2LPd0jAEbIvUg9f_dD-lTnvT9A53j6-1Ku6CkBp26MPXyZ1J7-U-Ksp3vey-7QP-DOZzMntc-l6Ly5M5qrfknoXeswO_m00]--></g></svg>