<?xml version="1.0" encoding="us-ascii" standalone="no"?><svg xmlns="http://www.w3.org/2000/svg" xmlns:xlink="http://www.w3.org/1999/xlink" contentStyleType="text/css" height="559px" preserveAspectRatio="none" style="width:902px;height:559px;background:#FFFFFF;" version="1.1" viewBox="0 0 902 559" width="902px" zoomAndPan="magnify"><defs/><g><g id="elem_TurnNote"><path d="M663.5,42.99 L663.5,71.814 L895.5,71.814 L895.5,52.99 L885.5,42.99 L663.5,42.99 " fill="#FEFFDD" style="stroke:#181818;stroke-width:0.5;"/><path d="M885.5,42.99 L885.5,52.99 L895.5,52.99 L885.5,42.99 " fill="#FEFFDD" style="stroke:#181818;stroke-width:1.0;"/><text fill="#000000" font-family="sans-serif" font-size="13" lengthAdjust="spacing" textLength="142" x="669.5" y="63.07">Where is the concept of</text><text fill="#000000" font-family="sans-serif" font-size="13" font-weight="bold" lengthAdjust="spacing" textLength="30" x="814.5" y="63.07">Turn</text><text fill="#000000" font-family="sans-serif" font-size="13" lengthAdjust="spacing" textLength="33" x="847.5" y="63.07">here?</text></g><!--class Game--><g id="elem_Game"><rect codeLine="6" fill="#F1F1F1" height="100.8157" id="Game" rx="2.5" ry="2.5" style="stroke:#181818;stroke-width:0.5;" width="92" x="536.5" y="7"/><ellipse cx="560.95" cy="23" fill="#ADD1B2" rx="11" ry="11" style="stroke:#181818;stroke-width:1.0;"/><path d="M561.1844,29.7031 C562.3406,29.7031 563.4344,29.2188 564.2625,28.1875 L562.8406,26.6719 C562.45,27.2188 561.9813,27.5313 561.4188,27.5313 C560.2313,27.5313 559.2156,26.3906 559.2156,23.1563 C559.2156,20 560.2781,18.8281 561.3094,18.8281 C561.9031,18.8281 562.2781,19.125 562.7,19.625 L564.1219,18.0625 C563.45,17.3125 562.4813,16.6719 561.2,16.6719 C558.7781,16.6719 556.6375,18.6406 556.6375,23.2656 C556.6375,27.9063 558.7781,29.7031 561.1844,29.7031 Z " fill="#000000"/><text fill="#000000" font-family="sans-serif" font-size="14" lengthAdjust="spacing" textLength="39" x="577.05" y="29.104">Game</text><line style="stroke:#181818;stroke-width:0.5;" x1="537.5" x2="627.5" y1="39" y2="39"/><text fill="#000000" font-family="sans-serif" font-size="14" lengthAdjust="spacing" textLength="58" x="542.5" y="59.2399">id: string</text><text fill="#000000" font-family="sans-serif" font-size="14" lengthAdjust="spacing" textLength="80" x="542.5" y="79.5118">stage: Stage</text><text fill="#000000" font-family="sans-serif" font-size="14" lengthAdjust="spacing" textLength="53" x="542.5" y="99.7838">turn: int</text></g><!--class Player--><g id="elem_Player"><rect codeLine="12" fill="#F1F1F1" height="80.5438" id="Player" rx="2.5" ry="2.5" style="stroke:#181818;stroke-width:0.5;" width="95" x="231" y="167.81"/><ellipse cx="255.9" cy="183.81" fill="#ADD1B2" rx="11" ry="11" style="stroke:#181818;stroke-width:1.0;"/><path d="M256.1344,190.5131 C257.2906,190.5131 258.3844,190.0288 259.2125,188.9975 L257.7906,187.4819 C257.4,188.0288 256.9313,188.3413 256.3688,188.3413 C255.1813,188.3413 254.1656,187.2006 254.1656,183.9663 C254.1656,180.81 255.2281,179.6381 256.2594,179.6381 C256.8531,179.6381 257.2281,179.935 257.65,180.435 L259.0719,178.8725 C258.4,178.1225 257.4313,177.4819 256.15,177.4819 C253.7281,177.4819 251.5875,179.4506 251.5875,184.0756 C251.5875,188.7163 253.7281,190.5131 256.1344,190.5131 Z " fill="#000000"/><text fill="#000000" font-family="sans-serif" font-size="14" lengthAdjust="spacing" textLength="41" x="272.1" y="189.914">Player</text><line style="stroke:#181818;stroke-width:0.5;" x1="232" x2="325" y1="199.81" y2="199.81"/><text fill="#000000" font-family="sans-serif" font-size="14" lengthAdjust="spacing" textLength="58" x="237" y="220.0499">id: string</text><text fill="#000000" font-family="sans-serif" font-size="14" lengthAdjust="spacing" textLength="83" x="237" y="240.3218">name: string</text></g><!--class Pile--><g id="elem_Pile"><rect codeLine="40" fill="#F1F1F1" height="60.2719" id="Pile" rx="2.5" ry="2.5" style="stroke:#181818;stroke-width:0.5;" width="94" x="454.5" y="400.36"/><ellipse cx="486.15" cy="416.36" fill="#ADD1B2" rx="11" ry="11" style="stroke:#181818;stroke-width:1.0;"/><path d="M486.3844,423.0631 C487.5406,423.0631 488.6344,422.5788 489.4625,421.5475 L488.0406,420.0319 C487.65,420.5788 487.1813,420.8913 486.6188,420.8913 C485.4313,420.8913 484.4156,419.7506 484.4156,416.5163 C484.4156,413.36 485.4781,412.1881 486.5094,412.1881 C487.1031,412.1881 487.4781,412.485 487.9,412.985 L489.3219,411.4225 C488.65,410.6725 487.6813,410.0319 486.4,410.0319 C483.9781,410.0319 481.8375,412.0006 481.8375,416.6256 C481.8375,421.2663 483.9781,423.0631 486.3844,423.0631 Z " fill="#000000"/><text fill="#000000" font-family="sans-serif" font-size="14" lengthAdjust="spacing" textLength="25" x="503.85" y="422.464">Pile</text><line style="stroke:#181818;stroke-width:0.5;" x1="455.5" x2="547.5" y1="432.36" y2="432.36"/><text fill="#000000" font-family="sans-serif" font-size="14" lengthAdjust="spacing" textLength="82" x="460.5" y="452.5999">faceup: bool</text></g><!--class Deck--><g id="elem_Deck"><rect codeLine="22" fill="#F1F1F1" height="32" id="Deck" rx="2.5" ry="2.5" style="stroke:#181818;stroke-width:0.5;" width="65" x="355" y="308.36"/><ellipse cx="370" cy="324.36" fill="#ADD1B2" rx="11" ry="11" style="stroke:#181818;stroke-width:1.0;"/><path d="M370.2344,331.0631 C371.3906,331.0631 372.4844,330.5788 373.3125,329.5475 L371.8906,328.0319 C371.5,328.5788 371.0313,328.8913 370.4688,328.8913 C369.2813,328.8913 368.2656,327.7506 368.2656,324.5163 C368.2656,321.36 369.3281,320.1881 370.3594,320.1881 C370.9531,320.1881 371.3281,320.485 371.75,320.985 L373.1719,319.4225 C372.5,318.6725 371.5313,318.0319 370.25,318.0319 C367.8281,318.0319 365.6875,320.0006 365.6875,324.6256 C365.6875,329.2663 367.8281,331.0631 370.2344,331.0631 Z " fill="#000000"/><text fill="#000000" font-family="sans-serif" font-size="14" lengthAdjust="spacing" textLength="33" x="384" y="330.464">Deck</text></g><!--class Discard--><g id="elem_Discard"><rect codeLine="23" fill="#F1F1F1" height="32" id="Discard" rx="2.5" ry="2.5" style="stroke:#181818;stroke-width:0.5;" width="82" x="237.5" y="308.36"/><ellipse cx="252.5" cy="324.36" fill="#ADD1B2" rx="11" ry="11" style="stroke:#181818;stroke-width:1.0;"/><path d="M252.7344,331.0631 C253.8906,331.0631 254.9844,330.5788 255.8125,329.5475 L254.3906,328.0319 C254,328.5788 253.5313,328.8913 252.9688,328.8913 C251.7813,328.8913 250.7656,327.7506 250.7656,324.5163 C250.7656,321.36 251.8281,320.1881 252.8594,320.1881 C253.4531,320.1881 253.8281,320.485 254.25,320.985 L255.6719,319.4225 C255,318.6725 254.0313,318.0319 252.75,318.0319 C250.3281,318.0319 248.1875,320.0006 248.1875,324.6256 C248.1875,329.2663 250.3281,331.0631 252.7344,331.0631 Z " fill="#000000"/><text fill="#000000" font-family="sans-serif" font-size="14" lengthAdjust="spacing" textLength="50" x="266.5" y="330.464">Discard</text></g><!--class Play Area--><g id="elem_Play Area"><rect codeLine="24" fill="#F1F1F1" height="32" id="Play Area" rx="2.5" ry="2.5" style="stroke:#181818;stroke-width:0.5;" width="93" x="7" y="308.36"/><ellipse cx="22" cy="324.36" fill="#ADD1B2" rx="11" ry="11" style="stroke:#181818;stroke-width:1.0;"/><path d="M22.2344,331.0631 C23.3906,331.0631 24.4844,330.5788 25.3125,329.5475 L23.8906,328.0319 C23.5,328.5788 23.0313,328.8913 22.4688,328.8913 C21.2813,328.8913 20.2656,327.7506 20.2656,324.5163 C20.2656,321.36 21.3281,320.1881 22.3594,320.1881 C22.9531,320.1881 23.3281,320.485 23.75,320.985 L25.1719,319.4225 C24.5,318.6725 23.5313,318.0319 22.25,318.0319 C19.8281,318.0319 17.6875,320.0006 17.6875,324.6256 C17.6875,329.2663 19.8281,331.0631 22.2344,331.0631 Z " fill="#000000"/><text fill="#000000" font-family="sans-serif" font-size="14" lengthAdjust="spacing" textLength="61" x="36" y="330.464">Play Area</text></g><!--class Hand--><g id="elem_Hand"><rect codeLine="25" fill="#F1F1F1" height="32" id="Hand" rx="2.5" ry="2.5" style="stroke:#181818;stroke-width:0.5;" width="68" x="134.5" y="308.36"/><ellipse cx="149.5" cy="324.36" fill="#ADD1B2" rx="11" ry="11" style="stroke:#181818;stroke-width:1.0;"/><path d="M149.7344,331.0631 C150.8906,331.0631 151.9844,330.5788 152.8125,329.5475 L151.3906,328.0319 C151,328.5788 150.5313,328.8913 149.9688,328.8913 C148.7813,328.8913 147.7656,327.7506 147.7656,324.5163 C147.7656,321.36 148.8281,320.1881 149.8594,320.1881 C150.4531,320.1881 150.8281,320.485 151.25,320.985 L152.6719,319.4225 C152,318.6725 151.0313,318.0319 149.75,318.0319 C147.3281,318.0319 145.1875,320.0006 145.1875,324.6256 C145.1875,329.2663 147.3281,331.0631 149.7344,331.0631 Z " fill="#000000"/><text fill="#000000" font-family="sans-serif" font-size="14" lengthAdjust="spacing" textLength="36" x="163.5" y="330.464">Hand</text></g><!--class Supply--><g id="elem_Supply"><rect codeLine="29" fill="#F1F1F1" height="32" id="Supply" rx="2.5" ry="2.5" style="stroke:#181818;stroke-width:0.5;" width="78" x="478.5" y="192.09"/><ellipse cx="493.5" cy="208.09" fill="#ADD1B2" rx="11" ry="11" style="stroke:#181818;stroke-width:1.0;"/><path d="M493.7344,214.7931 C494.8906,214.7931 495.9844,214.3087 496.8125,213.2775 L495.3906,211.7619 C495,212.3087 494.5313,212.6212 493.9688,212.6212 C492.7813,212.6212 491.7656,211.4806 491.7656,208.2462 C491.7656,205.09 492.8281,203.9181 493.8594,203.9181 C494.4531,203.9181 494.8281,204.215 495.25,204.715 L496.6719,203.1525 C496,202.4025 495.0313,201.7619 493.75,201.7619 C491.3281,201.7619 489.1875,203.7306 489.1875,208.3556 C489.1875,212.9962 491.3281,214.7931 493.7344,214.7931 Z " fill="#000000"/><text fill="#000000" font-family="sans-serif" font-size="14" lengthAdjust="spacing" textLength="46" x="507.5" y="214.194">Supply</text></g><!--class Non-Supply--><g id="elem_Non-Supply"><rect codeLine="30" fill="#F1F1F1" height="32" id="Non-Supply" rx="2.5" ry="2.5" style="stroke:#181818;stroke-width:0.5;" width="110" x="591.5" y="192.09"/><ellipse cx="606.5" cy="208.09" fill="#ADD1B2" rx="11" ry="11" style="stroke:#181818;stroke-width:1.0;"/><path d="M606.7344,214.7931 C607.8906,214.7931 608.9844,214.3087 609.8125,213.2775 L608.3906,211.7619 C608,212.3087 607.5313,212.6212 606.9688,212.6212 C605.7813,212.6212 604.7656,211.4806 604.7656,208.2462 C604.7656,205.09 605.8281,203.9181 606.8594,203.9181 C607.4531,203.9181 607.8281,204.215 608.25,204.715 L609.6719,203.1525 C609,202.4025 608.0313,201.7619 606.75,201.7619 C604.3281,201.7619 602.1875,203.7306 602.1875,208.3556 C602.1875,212.9962 604.3281,214.7931 606.7344,214.7931 Z " fill="#000000"/><text fill="#000000" font-family="sans-serif" font-size="14" lengthAdjust="spacing" textLength="78" x="620.5" y="214.194">Non-Supply</text></g><!--class Trash--><g id="elem_Trash"><rect codeLine="31" fill="#F1F1F1" height="32" id="Trash" rx="2.5" ry="2.5" style="stroke:#181818;stroke-width:0.5;" width="69" x="736" y="192.09"/><ellipse cx="751" cy="208.09" fill="#ADD1B2" rx="11" ry="11" style="stroke:#181818;stroke-width:1.0;"/><path d="M751.2344,214.7931 C752.3906,214.7931 753.4844,214.3087 754.3125,213.2775 L752.8906,211.7619 C752.5,212.3087 752.0313,212.6212 751.4688,212.6212 C750.2813,212.6212 749.2656,211.4806 749.2656,208.2462 C749.2656,205.09 750.3281,203.9181 751.3594,203.9181 C751.9531,203.9181 752.3281,204.215 752.75,204.715 L754.1719,203.1525 C753.5,202.4025 752.5313,201.7619 751.25,201.7619 C748.8281,201.7619 746.6875,203.7306 746.6875,208.3556 C746.6875,212.9962 748.8281,214.7931 751.2344,214.7931 Z " fill="#000000"/><text fill="#000000" font-family="sans-serif" font-size="14" lengthAdjust="spacing" textLength="37" x="765" y="214.194">Trash</text></g><!--class Base--><g id="elem_Base"><rect codeLine="35" fill="#F1F1F1" height="32" id="Base" rx="2.5" ry="2.5" style="stroke:#181818;stroke-width:0.5;" width="64" x="582.5" y="308.36"/><ellipse cx="597.5" cy="324.36" fill="#ADD1B2" rx="11" ry="11" style="stroke:#181818;stroke-width:1.0;"/><path d="M597.7344,331.0631 C598.8906,331.0631 599.9844,330.5788 600.8125,329.5475 L599.3906,328.0319 C599,328.5788 598.5313,328.8913 597.9688,328.8913 C596.7813,328.8913 595.7656,327.7506 595.7656,324.5163 C595.7656,321.36 596.8281,320.1881 597.8594,320.1881 C598.4531,320.1881 598.8281,320.485 599.25,320.985 L600.6719,319.4225 C600,318.6725 599.0313,318.0319 597.75,318.0319 C595.3281,318.0319 593.1875,320.0006 593.1875,324.6256 C593.1875,329.2663 595.3281,331.0631 597.7344,331.0631 Z " fill="#000000"/><text fill="#000000" font-family="sans-serif" font-size="14" lengthAdjust="spacing" textLength="32" x="611.5" y="330.464">Base</text></g><!--class Kingdom--><g id="elem_Kingdom"><rect codeLine="36" fill="#F1F1F1" height="32" id="Kingdom" rx="2.5" ry="2.5" style="stroke:#181818;stroke-width:0.5;" width="92" x="455.5" y="308.36"/><ellipse cx="470.5" cy="324.36" fill="#ADD1B2" rx="11" ry="11" style="stroke:#181818;stroke-width:1.0;"/><path d="M470.7344,331.0631 C471.8906,331.0631 472.9844,330.5788 473.8125,329.5475 L472.3906,328.0319 C472,328.5788 471.5313,328.8913 470.9688,328.8913 C469.7813,328.8913 468.7656,327.7506 468.7656,324.5163 C468.7656,321.36 469.8281,320.1881 470.8594,320.1881 C471.4531,320.1881 471.8281,320.485 472.25,320.985 L473.6719,319.4225 C473,318.6725 472.0313,318.0319 470.75,318.0319 C468.3281,318.0319 466.1875,320.0006 466.1875,324.6256 C466.1875,329.2663 468.3281,331.0631 470.7344,331.0631 Z " fill="#000000"/><text fill="#000000" font-family="sans-serif" font-size="14" lengthAdjust="spacing" textLength="60" x="484.5" y="330.464">Kingdom</text></g><!--class Card--><g id="elem_Card"><rect codeLine="41" fill="#F1F1F1" height="32" id="Card" rx="2.5" ry="2.5" style="stroke:#181818;stroke-width:0.5;" width="63" x="137" y="520.63"/><ellipse cx="152" cy="536.63" fill="#ADD1B2" rx="11" ry="11" style="stroke:#181818;stroke-width:1.0;"/><path d="M152.2344,543.3331 C153.3906,543.3331 154.4844,542.8488 155.3125,541.8175 L153.8906,540.3019 C153.5,540.8488 153.0313,541.1613 152.4688,541.1613 C151.2813,541.1613 150.2656,540.0206 150.2656,536.7863 C150.2656,533.63 151.3281,532.4581 152.3594,532.4581 C152.9531,532.4581 153.3281,532.755 153.75,533.255 L155.1719,531.6925 C154.5,530.9425 153.5313,530.3019 152.25,530.3019 C149.8281,530.3019 147.6875,532.2706 147.6875,536.8956 C147.6875,541.5363 149.8281,543.3331 152.2344,543.3331 Z " fill="#000000"/><text fill="#000000" font-family="sans-serif" font-size="14" lengthAdjust="spacing" textLength="31" x="166" y="542.734">Card</text></g><path d="M119.5,37.99 L119.5,66.814 A0,0 0 0 0 119.5,66.814 L501.5,66.814 A0,0 0 0 0 501.5,66.814 L501.5,56.402 L540.5,73.4079 L501.5,48.402 L501.5,47.99 L491.5,37.99 L119.5,37.99 A0,0 0 0 0 119.5,37.99 " fill="#FEFFDD" style="stroke:#181818;stroke-width:0.5;"/><path d="M491.5,37.99 L491.5,47.99 L501.5,47.99 L491.5,37.99 " fill="#FEFFDD" style="stroke:#181818;stroke-width:0.5;"/><text fill="#000000" font-family="sans-serif" font-size="13" lengthAdjust="spacing" textLength="361" x="125.5" y="58.07">Flesh out a more comprehensive notion of the current state</text><!--link Game to Supply--><g id="link_Game_Supply"><path codeLine="48" d="M549.83,108 C549.83,108 549.83,177.63 549.83,177.63 " fill="none" id="Game-to-Supply" style="stroke:#181818;stroke-width:1.0;"/><polygon fill="#181818" points="549.83,190.63,553.83,184.63,549.83,178.63,545.83,184.63,549.83,190.63" style="stroke:#181818;stroke-width:1.0;"/></g><!--link Game to Non-Supply--><g id="link_Game_Non-Supply"><path codeLine="49" d="M610,108 C610,108 610,177.63 610,177.63 " fill="none" id="Game-to-Non-Supply" style="stroke:#181818;stroke-width:1.0;"/><polygon fill="#181818" points="610,190.63,614,184.63,610,178.63,606,184.63,610,190.63" style="stroke:#181818;stroke-width:1.0;"/></g><!--link Game to Trash--><g id="link_Game_Trash"><path codeLine="50" d="M628.97,90.63 C684.64,90.63 770.5,90.63 770.5,90.63 C770.5,90.63 770.5,177.75 770.5,177.75 " fill="none" id="Game-to-Trash" style="stroke:#181818;stroke-width:1.0;"/><polygon fill="#181818" points="770.5,190.75,774.5,184.75,770.5,178.75,766.5,184.75,770.5,190.75" style="stroke:#181818;stroke-width:1.0;"/></g><!--link Game to Player--><g id="link_Game_Player"><path codeLine="51" d="M543.17,108.24 C543.17,142.18 543.17,180.63 543.17,180.63 C543.17,180.63 340.43,180.63 340.43,180.63 " fill="none" id="Game-to-Player" style="stroke:#181818;stroke-width:1.0;"/><polygon fill="#181818" points="327.43,180.63,333.43,184.63,339.43,180.63,333.43,176.63,327.43,180.63" style="stroke:#181818;stroke-width:1.0;"/><text fill="#000000" font-family="sans-serif" font-size="13" lengthAdjust="spacing" textLength="22" x="350.9044" y="154.2185">2..6</text><text fill="#000000" font-family="sans-serif" font-size="13" lengthAdjust="spacing" textLength="56" x="333.9044" y="173.0425">{ordered}</text></g><!--link Player to Play Area--><g id="link_Player_Play Area"><path codeLine="53" d="M230.51,195.63 C164.43,195.63 53.5,195.63 53.5,195.63 C53.5,195.63 53.5,273.42 53.5,308.05 " fill="none" id="Player-Play Area" style="stroke:#181818;stroke-width:1.0;"/></g><!--link Player to Hand--><g id="link_Player_Hand"><path codeLine="54" d="M230.57,221.63 C200.93,221.63 168.5,221.63 168.5,221.63 C168.5,221.63 168.5,279.41 168.5,308.31 " fill="none" id="Player-Hand" style="stroke:#181818;stroke-width:1.0;"/></g><!--link Player to Deck--><g id="link_Player_Deck"><path codeLine="55" d="M326.31,236.63 C355.6,236.63 387.5,236.63 387.5,236.63 C387.5,236.63 387.5,282.94 387.5,308.27 " fill="none" id="Player-Deck" style="stroke:#181818;stroke-width:1.0;"/></g><!--link Player to Discard--><g id="link_Player_Discard"><path codeLine="56" d="M278.5,248.75 C278.5,269.18 278.5,292.79 278.5,308.11 " fill="none" id="Player-Discard" style="stroke:#181818;stroke-width:1.0;"/></g><!--link Deck to Pile--><g id="link_Deck_Pile"><path codeLine="58" d="M387.5,340.68 C387.5,366.93 387.5,415.63 387.5,415.63 C387.5,415.63 440.14,415.63 440.14,415.63 " fill="none" id="Deck-to-Pile" style="stroke:#181818;stroke-width:1.0;"/><polygon fill="#181818" points="453.14,415.63,447.14,411.63,441.14,415.63,447.14,419.63,453.14,415.63" style="stroke:#181818;stroke-width:1.0;"/><text fill="#000000" font-family="sans-serif" font-size="13" lengthAdjust="spacing" textLength="7" x="439.3521" y="409.1186">1</text></g><!--link Discard to Pile--><g id="link_Discard_Pile"><path codeLine="59" d="M278.5,340.5 C278.5,370.23 278.5,430.63 278.5,430.63 C278.5,430.63 440.21,430.63 440.21,430.63 " fill="none" id="Discard-to-Pile" style="stroke:#181818;stroke-width:1.0;"/><polygon fill="#181818" points="453.21,430.63,447.21,426.63,441.21,430.63,447.21,434.63,453.21,430.63" style="stroke:#181818;stroke-width:1.0;"/><text fill="#000000" font-family="sans-serif" font-size="13" lengthAdjust="spacing" textLength="7" x="439.4328" y="447.1718">1</text></g><!--link Supply to Base--><g id="link_Supply_Base"><path codeLine="61" d="M552.5,224.29 C552.5,256.31 552.5,324.63 552.5,324.63 C552.5,324.63 567.05,324.63 582.05,324.63 " fill="none" id="Supply-Base" style="stroke:#181818;stroke-width:1.0;"/></g><!--link Supply to Kingdom--><g id="link_Supply_Kingdom"><path codeLine="62" d="M513,224.25 C513,246.34 513,285.74 513,307.95 " fill="none" id="Supply-Kingdom" style="stroke:#181818;stroke-width:1.0;"/></g><!--link Base to Pile--><g id="link_Base_Pile"><path codeLine="64" d="M614.5,340.68 C614.5,366.93 614.5,415.63 614.5,415.63 C614.5,415.63 562.77,415.63 562.77,415.63 " fill="none" id="Base-to-Pile" style="stroke:#181818;stroke-width:1.0;"/><polygon fill="#181818" points="549.77,415.63,555.77,419.63,561.77,415.63,555.77,411.63,549.77,415.63" style="stroke:#181818;stroke-width:1.0;"/><text fill="#000000" font-family="sans-serif" font-size="13" lengthAdjust="spacing" textLength="15" x="556.472" y="409.4118">1..</text></g><!--link Kingdom to Pile--><g id="link_Kingdom_Pile"><path codeLine="65" d="M501.5,340.48 C501.5,340.48 501.5,386.1 501.5,386.1 " fill="none" id="Kingdom-to-Pile" style="stroke:#181818;stroke-width:1.0;"/><polygon fill="#181818" points="501.5,399.1,505.5,393.1,501.5,387.1,497.5,393.1,501.5,399.1" style="stroke:#181818;stroke-width:1.0;"/><text fill="#000000" font-family="sans-serif" font-size="13" lengthAdjust="spacing" textLength="22" x="477.0938" y="388.6523">10..</text></g><!--link Non-Supply to Pile--><g id="link_Non-Supply_Pile"><path codeLine="66" d="M674,224.45 C674,275.84 674,430.63 674,430.63 C674,430.63 562.64,430.63 562.64,430.63 " fill="none" id="Non-Supply-to-Pile" style="stroke:#181818;stroke-width:1.0;"/><polygon fill="#181818" points="549.64,430.63,555.64,434.63,561.64,430.63,555.64,426.63,549.64,430.63" style="stroke:#181818;stroke-width:1.0;"/><text fill="#000000" font-family="sans-serif" font-size="13" lengthAdjust="spacing" textLength="15" x="556.6653" y="426.4683">1..</text></g><!--link Trash to Pile--><g id="link_Trash_Pile"><path codeLine="68" d="M770.5,224.41 C770.5,278.08 770.5,445.63 770.5,445.63 C770.5,445.63 562.97,445.63 562.97,445.63 " fill="none" id="Trash-to-Pile" style="stroke:#181818;stroke-width:1.0;"/><polygon fill="#181818" points="549.97,445.63,555.97,449.63,561.97,445.63,555.97,441.63,549.97,445.63" style="stroke:#181818;stroke-width:1.0;"/><text fill="#000000" font-family="sans-serif" font-size="13" lengthAdjust="spacing" textLength="7" x="556.4562" y="464.3152">1</text></g><!--link Pile to Card--><g id="link_Pile_Card"><path codeLine="70" d="M454.26,445.63 C364.68,445.63 179,445.63 179,445.63 C179,445.63 179,506.36 179,506.36 " fill="none" id="Pile-to-Card" style="stroke:#181818;stroke-width:1.0;"/><polygon fill="#181818" points="179,519.36,183,513.36,179,507.36,175,513.36,179,519.36" style="stroke:#181818;stroke-width:1.0;"/><text fill="#000000" font-family="sans-serif" font-size="13" lengthAdjust="spacing" textLength="3" x="239.0984" y="471.3212">&#160;</text><text fill="#000000" font-family="sans-serif" font-size="13" lengthAdjust="spacing" textLength="6" x="236.0984" y="490.1453">*</text><text fill="#000000" font-family="sans-serif" font-size="13" lengthAdjust="spacing" textLength="56" x="186.0984" y="508.9693">{ordered}</text></g><!--link Play Area to Card--><g id="link_Play Area_Card"><path codeLine="72" d="M53.5,340.74 C53.5,390.68 53.5,537.63 53.5,537.63 C53.5,537.63 122.77,537.63 122.77,537.63 " fill="none" id="Play Area-to-Card" style="stroke:#181818;stroke-width:1.0;"/><polygon fill="#181818" points="135.77,537.63,129.77,533.63,123.77,537.63,129.77,541.63,135.77,537.63" style="stroke:#181818;stroke-width:1.0;"/><text fill="#000000" font-family="sans-serif" font-size="13" lengthAdjust="spacing" textLength="6" x="123.1728" y="533.0501">*</text></g><!--link Hand to Card--><g id="link_Hand_Card"><path codeLine="73" d="M158,340.66 C158,340.66 158,506.27 158,506.27 " fill="none" id="Hand-to-Card" style="stroke:#181818;stroke-width:1.0;"/><polygon fill="#181818" points="158,519.27,162,513.27,158,507.27,154,513.27,158,519.27" style="stroke:#181818;stroke-width:1.0;"/><text fill="#000000" font-family="sans-serif" font-size="13" lengthAdjust="spacing" textLength="6" x="147.3594" y="508.7741">*</text></g><!--SRC=[TLBBQiCm4BphAnOV0tOVXnvCIEc3jb08XGHwoKMnDh68BGb9BfYGVwzUiUEMdCJCxcYrCwevGy1MsHvQRBUe3J47BXJLj8M62xIzGf3Qrf8G8Ir2zbsZHk06R8rGIL6XiY1tCDykrfqMyvlj0dpBOmRKWAUMJaT8rL1Zu9ss24S2m5a9ncekzWuOI_TOmieV3bedAe4BIqvdtLT3UzJ_bSBTDy2ncpTnoevMsAaIjb8slcpb7jsxuqMnznMhmmYugQXc0yxyN7ZIIBE1-w22NRbhrIdLzADwAKKUkL6-rjJKL_JFrE00FjrAJBPNMlsA0tZnRpwbX1hSXK2yrMLfagTl3PeQP6U1GYkrZwvL6ciKXlyWE2MNmij2h9tMAApFnKM7Wlcwop2ab-Upyw83dcmwi77LiUc-A1usuYWrS_-3dRAKAY4ftJoV63womV8HXiWkO0gDU3vEkikYGQaq9Kbyg9S6mqTujfnuFecA8ibICT6t0t-v-ryD2HRy6Hz-Pw0sUZRn8-H8BZo8RRDKyJPCc5y0]--></g></svg>