<?xml version="1.0" encoding="us-ascii" standalone="no"?><svg xmlns="http://www.w3.org/2000/svg" xmlns:xlink="http://www.w3.org/1999/xlink" contentStyleType="text/css" height="552px" preserveAspectRatio="none" style="width:1123px;height:552px;background:#FFFFFF;" version="1.1" viewBox="0 0 1123 552" width="1123px" zoomAndPan="magnify"><defs/><g><text fill="#000000" font-family="sans-serif" font-size="14" font-weight="bold" lengthAdjust="spacing" textLength="136" x="486.5" y="26.2399">A Game of Demesne</text><g id="elem_TurnNote"><path d="M666,84.2719 L666,113.0959 L898,113.0959 L898,94.2719 L888,84.2719 L666,84.2719 " fill="#FEFFDD" style="stroke:#181818;stroke-width:0.5;"/><path d="M888,84.2719 L888,94.2719 L898,94.2719 L888,84.2719 " fill="#FEFFDD" style="stroke:#181818;stroke-width:1.0;"/><text fill="#000000" font-family="sans-serif" font-size="13" lengthAdjust="spacing" textLength="142" x="672" y="104.3519">Where is the concept of</text><text fill="#000000" font-family="sans-serif" font-size="13" font-weight="bold" lengthAdjust="spacing" textLength="30" x="817" y="104.3519">Turn</text><text fill="#000000" font-family="sans-serif" font-size="13" lengthAdjust="spacing" textLength="33" x="850" y="104.3519">here?</text></g><g id="elem_ClassNote"><path d="M6,210.6819 L6,239.5059 L344,239.5059 L344,220.6819 L334,210.6819 L6,210.6819 " fill="#FEFFDD" style="stroke:#181818;stroke-width:0.5;"/><path d="M334,210.6819 L334,220.6819 L344,220.6819 L334,210.6819 " fill="#FEFFDD" style="stroke:#181818;stroke-width:1.0;"/><text fill="#000000" font-family="sans-serif" font-size="13" lengthAdjust="spacing" textLength="317" x="12" y="230.7619">Reevaluate whether these should actually be classes</text></g><!--class Game--><g id="elem_Game"><rect codeLine="9" fill="#F1F1F1" height="100.8157" id="Game" rx="2.5" ry="2.5" style="stroke:#181818;stroke-width:0.5;" width="92" x="539" y="48.2719"/><ellipse cx="563.45" cy="64.2719" fill="#ADD1B2" rx="11" ry="11" style="stroke:#181818;stroke-width:1.0;"/><path d="M563.6844,70.975 C564.8406,70.975 565.9344,70.4907 566.7625,69.4594 L565.3406,67.9438 C564.95,68.4907 564.4813,68.8032 563.9188,68.8032 C562.7313,68.8032 561.7156,67.6625 561.7156,64.4282 C561.7156,61.2719 562.7781,60.1 563.8094,60.1 C564.4031,60.1 564.7781,60.3969 565.2,60.8969 L566.6219,59.3344 C565.95,58.5844 564.9813,57.9438 563.7,57.9438 C561.2781,57.9438 559.1375,59.9125 559.1375,64.5375 C559.1375,69.1782 561.2781,70.975 563.6844,70.975 Z " fill="#000000"/><text fill="#000000" font-family="sans-serif" font-size="14" lengthAdjust="spacing" textLength="39" x="579.55" y="70.3759">Game</text><line style="stroke:#181818;stroke-width:0.5;" x1="540" x2="630" y1="80.2719" y2="80.2719"/><text fill="#000000" font-family="sans-serif" font-size="14" lengthAdjust="spacing" textLength="58" x="545" y="100.5118">id: string</text><text fill="#000000" font-family="sans-serif" font-size="14" lengthAdjust="spacing" textLength="80" x="545" y="120.7838">stage: Stage</text><text fill="#000000" font-family="sans-serif" font-size="14" lengthAdjust="spacing" textLength="53" x="545" y="141.0557">turn: int</text></g><!--class Player--><g id="elem_Player"><rect codeLine="15" fill="#F1F1F1" height="32" id="Player" rx="2.5" ry="2.5" style="stroke:#181818;stroke-width:0.5;" width="73" x="816.5" y="209.0919"/><ellipse cx="831.5" cy="225.0919" fill="#ADD1B2" rx="11" ry="11" style="stroke:#181818;stroke-width:1.0;"/><path d="M831.7344,231.795 C832.8906,231.795 833.9844,231.3107 834.8125,230.2794 L833.3906,228.7638 C833,229.3107 832.5313,229.6232 831.9688,229.6232 C830.7813,229.6232 829.7656,228.4825 829.7656,225.2482 C829.7656,222.0919 830.8281,220.92 831.8594,220.92 C832.4531,220.92 832.8281,221.2169 833.25,221.7169 L834.6719,220.1544 C834,219.4044 833.0313,218.7638 831.75,218.7638 C829.3281,218.7638 827.1875,220.7325 827.1875,225.3575 C827.1875,229.9982 829.3281,231.795 831.7344,231.795 Z " fill="#000000"/><text fill="#000000" font-family="sans-serif" font-size="14" lengthAdjust="spacing" textLength="41" x="845.5" y="231.1959">Player</text></g><!--class Pile--><g id="elem_Pile"><rect codeLine="40" fill="#F1F1F1" height="60.2719" id="Pile" rx="2.5" ry="2.5" style="stroke:#181818;stroke-width:0.5;" width="94" x="603" y="393.0919"/><ellipse cx="634.65" cy="409.0919" fill="#ADD1B2" rx="11" ry="11" style="stroke:#181818;stroke-width:1.0;"/><path d="M634.8844,415.795 C636.0406,415.795 637.1344,415.3107 637.9625,414.2794 L636.5406,412.7638 C636.15,413.3107 635.6813,413.6232 635.1188,413.6232 C633.9313,413.6232 632.9156,412.4825 632.9156,409.2482 C632.9156,406.0919 633.9781,404.92 635.0094,404.92 C635.6031,404.92 635.9781,405.2169 636.4,405.7169 L637.8219,404.1544 C637.15,403.4044 636.1813,402.7638 634.9,402.7638 C632.4781,402.7638 630.3375,404.7325 630.3375,409.3575 C630.3375,413.9982 632.4781,415.795 634.8844,415.795 Z " fill="#000000"/><text fill="#000000" font-family="sans-serif" font-size="14" lengthAdjust="spacing" textLength="25" x="652.35" y="415.1959">Pile</text><line style="stroke:#181818;stroke-width:0.5;" x1="604" x2="696" y1="425.0919" y2="425.0919"/><text fill="#000000" font-family="sans-serif" font-size="14" lengthAdjust="spacing" textLength="82" x="609" y="445.3318">faceup: bool</text></g><!--class Deck--><g id="elem_Deck"><rect codeLine="22" fill="#F1F1F1" height="32" id="Deck" rx="2.5" ry="2.5" style="stroke:#181818;stroke-width:0.5;" width="65" x="820.5" y="301.0919"/><ellipse cx="835.5" cy="317.0919" fill="#ADD1B2" rx="11" ry="11" style="stroke:#181818;stroke-width:1.0;"/><path d="M835.7344,323.795 C836.8906,323.795 837.9844,323.3107 838.8125,322.2794 L837.3906,320.7638 C837,321.3107 836.5313,321.6232 835.9688,321.6232 C834.7813,321.6232 833.7656,320.4825 833.7656,317.2482 C833.7656,314.0919 834.8281,312.92 835.8594,312.92 C836.4531,312.92 836.8281,313.2169 837.25,313.7169 L838.6719,312.1544 C838,311.4044 837.0313,310.7638 835.75,310.7638 C833.3281,310.7638 831.1875,312.7325 831.1875,317.3575 C831.1875,321.9982 833.3281,323.795 835.7344,323.795 Z " fill="#000000"/><text fill="#000000" font-family="sans-serif" font-size="14" lengthAdjust="spacing" textLength="33" x="849.5" y="323.1959">Deck</text></g><!--class Discard--><g id="elem_Discard"><rect codeLine="23" fill="#F1F1F1" height="32" id="Discard" rx="2.5" ry="2.5" style="stroke:#181818;stroke-width:0.5;" width="82" x="703" y="301.0919"/><ellipse cx="718" cy="317.0919" fill="#ADD1B2" rx="11" ry="11" style="stroke:#181818;stroke-width:1.0;"/><path d="M718.2344,323.795 C719.3906,323.795 720.4844,323.3107 721.3125,322.2794 L719.8906,320.7638 C719.5,321.3107 719.0313,321.6232 718.4688,321.6232 C717.2813,321.6232 716.2656,320.4825 716.2656,317.2482 C716.2656,314.0919 717.3281,312.92 718.3594,312.92 C718.9531,312.92 719.3281,313.2169 719.75,313.7169 L721.1719,312.1544 C720.5,311.4044 719.5313,310.7638 718.25,310.7638 C715.8281,310.7638 713.6875,312.7325 713.6875,317.3575 C713.6875,321.9982 715.8281,323.795 718.2344,323.795 Z " fill="#000000"/><text fill="#000000" font-family="sans-serif" font-size="14" lengthAdjust="spacing" textLength="50" x="732" y="323.1959">Discard</text></g><!--class Play Area--><g id="elem_Play Area"><rect codeLine="24" fill="#F1F1F1" height="32" id="Play Area" rx="2.5" ry="2.5" style="stroke:#181818;stroke-width:0.5;" width="93" x="920.5" y="301.0919"/><ellipse cx="935.5" cy="317.0919" fill="#ADD1B2" rx="11" ry="11" style="stroke:#181818;stroke-width:1.0;"/><path d="M935.7344,323.795 C936.8906,323.795 937.9844,323.3107 938.8125,322.2794 L937.3906,320.7638 C937,321.3107 936.5313,321.6232 935.9688,321.6232 C934.7813,321.6232 933.7656,320.4825 933.7656,317.2482 C933.7656,314.0919 934.8281,312.92 935.8594,312.92 C936.4531,312.92 936.8281,313.2169 937.25,313.7169 L938.6719,312.1544 C938,311.4044 937.0313,310.7638 935.75,310.7638 C933.3281,310.7638 931.1875,312.7325 931.1875,317.3575 C931.1875,321.9982 933.3281,323.795 935.7344,323.795 Z " fill="#000000"/><text fill="#000000" font-family="sans-serif" font-size="14" lengthAdjust="spacing" textLength="61" x="949.5" y="323.1959">Play Area</text></g><!--class Hand--><g id="elem_Hand"><rect codeLine="25" fill="#F1F1F1" height="32" id="Hand" rx="2.5" ry="2.5" style="stroke:#181818;stroke-width:0.5;" width="68" x="1048" y="301.0919"/><ellipse cx="1063" cy="317.0919" fill="#ADD1B2" rx="11" ry="11" style="stroke:#181818;stroke-width:1.0;"/><path d="M1063.2344,323.795 C1064.3906,323.795 1065.4844,323.3107 1066.3125,322.2794 L1064.8906,320.7638 C1064.5,321.3107 1064.0313,321.6232 1063.4688,321.6232 C1062.2813,321.6232 1061.2656,320.4825 1061.2656,317.2482 C1061.2656,314.0919 1062.3281,312.92 1063.3594,312.92 C1063.9531,312.92 1064.3281,313.2169 1064.75,313.7169 L1066.1719,312.1544 C1065.5,311.4044 1064.5313,310.7638 1063.25,310.7638 C1060.8281,310.7638 1058.6875,312.7325 1058.6875,317.3575 C1058.6875,321.9982 1060.8281,323.795 1063.2344,323.795 Z " fill="#000000"/><text fill="#000000" font-family="sans-serif" font-size="14" lengthAdjust="spacing" textLength="36" x="1077" y="323.1959">Hand</text></g><!--class Supply--><g id="elem_Supply"><rect codeLine="29" fill="#F1F1F1" height="32" id="Supply" rx="2.5" ry="2.5" style="stroke:#181818;stroke-width:0.5;" width="78" x="482" y="209.0919"/><ellipse cx="497" cy="225.0919" fill="#ADD1B2" rx="11" ry="11" style="stroke:#181818;stroke-width:1.0;"/><path d="M497.2344,231.795 C498.3906,231.795 499.4844,231.3107 500.3125,230.2794 L498.8906,228.7638 C498.5,229.3107 498.0313,229.6232 497.4688,229.6232 C496.2813,229.6232 495.2656,228.4825 495.2656,225.2482 C495.2656,222.0919 496.3281,220.92 497.3594,220.92 C497.9531,220.92 498.3281,221.2169 498.75,221.7169 L500.1719,220.1544 C499.5,219.4044 498.5313,218.7638 497.25,218.7638 C494.8281,218.7638 492.6875,220.7325 492.6875,225.3575 C492.6875,229.9982 494.8281,231.795 497.2344,231.795 Z " fill="#000000"/><text fill="#000000" font-family="sans-serif" font-size="14" lengthAdjust="spacing" textLength="46" x="511" y="231.1959">Supply</text></g><!--class Non-Supply--><g id="elem_Non-Supply"><rect codeLine="30" fill="#F1F1F1" height="32" id="Non-Supply" rx="2.5" ry="2.5" style="stroke:#181818;stroke-width:0.5;" width="110" x="595" y="209.0919"/><ellipse cx="610" cy="225.0919" fill="#ADD1B2" rx="11" ry="11" style="stroke:#181818;stroke-width:1.0;"/><path d="M610.2344,231.795 C611.3906,231.795 612.4844,231.3107 613.3125,230.2794 L611.8906,228.7638 C611.5,229.3107 611.0313,229.6232 610.4688,229.6232 C609.2813,229.6232 608.2656,228.4825 608.2656,225.2482 C608.2656,222.0919 609.3281,220.92 610.3594,220.92 C610.9531,220.92 611.3281,221.2169 611.75,221.7169 L613.1719,220.1544 C612.5,219.4044 611.5313,218.7638 610.25,218.7638 C607.8281,218.7638 605.6875,220.7325 605.6875,225.3575 C605.6875,229.9982 607.8281,231.795 610.2344,231.795 Z " fill="#000000"/><text fill="#000000" font-family="sans-serif" font-size="14" lengthAdjust="spacing" textLength="78" x="624" y="231.1959">Non-Supply</text></g><!--class Trash--><g id="elem_Trash"><rect codeLine="31" fill="#F1F1F1" height="32" id="Trash" rx="2.5" ry="2.5" style="stroke:#181818;stroke-width:0.5;" width="69" x="378.5" y="209.0919"/><ellipse cx="393.5" cy="225.0919" fill="#ADD1B2" rx="11" ry="11" style="stroke:#181818;stroke-width:1.0;"/><path d="M393.7344,231.795 C394.8906,231.795 395.9844,231.3107 396.8125,230.2794 L395.3906,228.7638 C395,229.3107 394.5313,229.6232 393.9688,229.6232 C392.7813,229.6232 391.7656,228.4825 391.7656,225.2482 C391.7656,222.0919 392.8281,220.92 393.8594,220.92 C394.4531,220.92 394.8281,221.2169 395.25,221.7169 L396.6719,220.1544 C396,219.4044 395.0313,218.7638 393.75,218.7638 C391.3281,218.7638 389.1875,220.7325 389.1875,225.3575 C389.1875,229.9982 391.3281,231.795 393.7344,231.795 Z " fill="#000000"/><text fill="#000000" font-family="sans-serif" font-size="14" lengthAdjust="spacing" textLength="37" x="407.5" y="231.1959">Trash</text></g><!--class Base--><g id="elem_Base"><rect codeLine="35" fill="#F1F1F1" height="32" id="Base" rx="2.5" ry="2.5" style="stroke:#181818;stroke-width:0.5;" width="64" x="533" y="301.0919"/><ellipse cx="548" cy="317.0919" fill="#ADD1B2" rx="11" ry="11" style="stroke:#181818;stroke-width:1.0;"/><path d="M548.2344,323.795 C549.3906,323.795 550.4844,323.3107 551.3125,322.2794 L549.8906,320.7638 C549.5,321.3107 549.0313,321.6232 548.4688,321.6232 C547.2813,321.6232 546.2656,320.4825 546.2656,317.2482 C546.2656,314.0919 547.3281,312.92 548.3594,312.92 C548.9531,312.92 549.3281,313.2169 549.75,313.7169 L551.1719,312.1544 C550.5,311.4044 549.5313,310.7638 548.25,310.7638 C545.8281,310.7638 543.6875,312.7325 543.6875,317.3575 C543.6875,321.9982 545.8281,323.795 548.2344,323.795 Z " fill="#000000"/><text fill="#000000" font-family="sans-serif" font-size="14" lengthAdjust="spacing" textLength="32" x="562" y="323.1959">Base</text></g><!--class Kingdom--><g id="elem_Kingdom"><rect codeLine="36" fill="#F1F1F1" height="32" id="Kingdom" rx="2.5" ry="2.5" style="stroke:#181818;stroke-width:0.5;" width="92" x="406" y="301.0919"/><ellipse cx="421" cy="317.0919" fill="#ADD1B2" rx="11" ry="11" style="stroke:#181818;stroke-width:1.0;"/><path d="M421.2344,323.795 C422.3906,323.795 423.4844,323.3107 424.3125,322.2794 L422.8906,320.7638 C422.5,321.3107 422.0313,321.6232 421.4688,321.6232 C420.2813,321.6232 419.2656,320.4825 419.2656,317.2482 C419.2656,314.0919 420.3281,312.92 421.3594,312.92 C421.9531,312.92 422.3281,313.2169 422.75,313.7169 L424.1719,312.1544 C423.5,311.4044 422.5313,310.7638 421.25,310.7638 C418.8281,310.7638 416.6875,312.7325 416.6875,317.3575 C416.6875,321.9982 418.8281,323.795 421.2344,323.795 Z " fill="#000000"/><text fill="#000000" font-family="sans-serif" font-size="14" lengthAdjust="spacing" textLength="60" x="435" y="323.1959">Kingdom</text></g><!--class Card--><g id="elem_Card"><rect codeLine="41" fill="#F1F1F1" height="32" id="Card" rx="2.5" ry="2.5" style="stroke:#181818;stroke-width:0.5;" width="63" x="935.5" y="513.3619"/><ellipse cx="950.5" cy="529.3619" fill="#ADD1B2" rx="11" ry="11" style="stroke:#181818;stroke-width:1.0;"/><path d="M950.7344,536.065 C951.8906,536.065 952.9844,535.5807 953.8125,534.5494 L952.3906,533.0338 C952,533.5807 951.5313,533.8932 950.9688,533.8932 C949.7813,533.8932 948.7656,532.7525 948.7656,529.5182 C948.7656,526.3619 949.8281,525.19 950.8594,525.19 C951.4531,525.19 951.8281,525.4869 952.25,525.9869 L953.6719,524.4244 C953,523.6744 952.0313,523.0338 950.75,523.0338 C948.3281,523.0338 946.1875,525.0025 946.1875,529.6275 C946.1875,534.2682 948.3281,536.065 950.7344,536.065 Z " fill="#000000"/><text fill="#000000" font-family="sans-serif" font-size="14" lengthAdjust="spacing" textLength="31" x="964.5" y="535.4659">Card</text></g><path d="M122,79.2719 L122,108.0959 A0,0 0 0 0 122,108.0959 L504,108.0959 A0,0 0 0 0 504,108.0959 L504,97.6839 L543,114.6798 L504,89.6839 L504,89.2719 L494,79.2719 L122,79.2719 A0,0 0 0 0 122,79.2719 " fill="#FEFFDD" style="stroke:#181818;stroke-width:0.5;"/><path d="M494,79.2719 L494,89.2719 L504,89.2719 L494,79.2719 " fill="#FEFFDD" style="stroke:#181818;stroke-width:0.5;"/><text fill="#000000" font-family="sans-serif" font-size="13" lengthAdjust="spacing" textLength="361" x="128" y="99.3519">Flesh out a more comprehensive notion of the current state</text><!--reverse link Game to Supply--><g id="link_Game_Supply"><path codeLine="48" d="M549.5,163.8819 C549.5,163.8819 549.5,208.6819 549.5,208.6819 " fill="none" id="Game-backto-Supply" style="stroke:#181818;stroke-width:1.0;"/><polygon fill="#181818" points="549.5,150.8819,545.5,156.8819,549.5,162.8819,553.5,156.8819,549.5,150.8819" style="stroke:#181818;stroke-width:1.0;"/></g><!--reverse link Game to Non-Supply--><g id="link_Game_Non-Supply"><path codeLine="49" d="M619,163.8819 C619,163.8819 619,208.6819 619,208.6819 " fill="none" id="Game-backto-Non-Supply" style="stroke:#181818;stroke-width:1.0;"/><polygon fill="#181818" points="619,150.8819,615,156.8819,619,162.8819,623,156.8819,619,150.8819" style="stroke:#181818;stroke-width:1.0;"/></g><!--reverse link Game to Trash--><g id="link_Game_Trash"><path codeLine="50" d="M524.39,134.3619 C524.39,134.3619 413,134.3619 413,134.3619 C413,134.3619 413,182.7719 413,208.8719 " fill="none" id="Game-backto-Trash" style="stroke:#181818;stroke-width:1.0;"/><polygon fill="#181818" points="537.39,134.3619,531.39,130.3619,525.39,134.3619,531.39,138.3619,537.39,134.3619" style="stroke:#181818;stroke-width:1.0;"/></g><!--reverse link Game to Player--><g id="link_Game_Player"><path codeLine="51" d="M645.89,131.3619 C645.89,131.3619 853,131.3619 853,131.3619 C853,131.3619 853,181.9119 853,208.7619 " fill="none" id="Game-backto-Player" style="stroke:#181818;stroke-width:1.0;"/><polygon fill="#181818" points="632.89,131.3619,638.89,135.3619,644.89,131.3619,638.89,127.3619,632.89,131.3619" style="stroke:#181818;stroke-width:1.0;"/><text fill="#000000" font-family="sans-serif" font-size="13" lengthAdjust="spacing" textLength="22" x="807.175" y="178.4311">2..6</text><text fill="#000000" font-family="sans-serif" font-size="13" lengthAdjust="spacing" textLength="56" x="790.175" y="197.2551">{ordered}</text></g><!--link Player to Play Area--><g id="link_Player_Play Area"><path codeLine="53" d="M889.7,231.3619 C923.02,231.3619 967,231.3619 967,231.3619 C967,231.3619 967,276.1319 967,300.9619 " fill="none" id="Player-Play Area" style="stroke:#181818;stroke-width:1.0;"/></g><!--link Player to Hand--><g id="link_Player_Hand"><path codeLine="54" d="M889.79,220.3619 C954.53,220.3619 1082,220.3619 1082,220.3619 C1082,220.3619 1082,273.0819 1082,300.6819 " fill="none" id="Player-Hand" style="stroke:#181818;stroke-width:1.0;"/></g><!--link Player to Deck--><g id="link_Player_Deck"><path codeLine="55" d="M853,241.5419 C853,258.2819 853,284.0919 853,300.7819 " fill="none" id="Player-Deck" style="stroke:#181818;stroke-width:1.0;"/></g><!--link Player to Discard--><g id="link_Player_Discard"><path codeLine="56" d="M816.13,225.3619 C784.85,225.3619 745,225.3619 745,225.3619 C745,225.3619 745,274.3019 745,300.6919 " fill="none" id="Player-Discard" style="stroke:#181818;stroke-width:1.0;"/></g><!--reverse link Deck to Pile--><g id="link_Deck_Pile"><path codeLine="58" d="M853,347.9319 C853,347.9319 853,413.3619 853,413.3619 C853,413.3619 757.32,413.3619 697.34,413.3619 " fill="none" id="Deck-backto-Pile" style="stroke:#181818;stroke-width:1.0;"/><polygon fill="#181818" points="853,334.9319,849,340.9319,853,346.9319,857,340.9319,853,334.9319" style="stroke:#181818;stroke-width:1.0;"/><text fill="#000000" font-family="sans-serif" font-size="13" lengthAdjust="spacing" textLength="7" x="705.1249" y="407.6162">1</text></g><!--reverse link Discard to Pile--><g id="link_Discard_Pile"><path codeLine="59" d="M688.07,312.3619 C688.07,312.3619 673.5,312.3619 673.5,312.3619 C673.5,312.3619 673.5,359.8219 673.5,392.6419 " fill="none" id="Discard-backto-Pile" style="stroke:#181818;stroke-width:1.0;"/><polygon fill="#181818" points="701.07,312.3619,695.07,308.3619,689.07,312.3619,695.07,316.3619,701.07,312.3619" style="stroke:#181818;stroke-width:1.0;"/><text fill="#000000" font-family="sans-serif" font-size="13" lengthAdjust="spacing" textLength="7" x="670.875" y="381.1526">1</text></g><!--link ClassNote to Trash--><g id="link_ClassNote_Trash"><path codeLine="61" d="M344.48,225.3619 C356.85,225.3619 368.32,225.3619 378.21,225.3619 " fill="none" id="ClassNote-Trash" style="stroke:#181818;stroke-width:1.0;stroke-dasharray:7.0,7.0;"/></g><!--link ClassNote to Supply--><g id="link_ClassNote_Supply"><path codeLine="62" d="M270,210.5619 C270,200.6619 270,189.3619 270,189.3619 C270,189.3619 493,189.3619 493,189.3619 C493,189.3619 493,199.4419 493,208.9019 " fill="none" id="ClassNote-Supply" style="stroke:#181818;stroke-width:1.0;stroke-dasharray:7.0,7.0;"/></g><!--link ClassNote to Non-Supply--><g id="link_ClassNote_Non-Supply"><path codeLine="63" d="M196,210.4519 C196,193.9319 196,169.3619 196,169.3619 C196,169.3619 607,169.3619 607,169.3619 C607,169.3619 607,192.2319 607,208.6719 " fill="none" id="ClassNote-Non-Supply" style="stroke:#181818;stroke-width:1.0;stroke-dasharray:7.0,7.0;"/></g><!--link Supply to Base--><g id="link_Supply_Base"><path codeLine="65" d="M546.5,241.5419 C546.5,258.2819 546.5,284.0919 546.5,300.7819 " fill="none" id="Supply-Base" style="stroke:#181818;stroke-width:1.0;"/></g><!--link Supply to Kingdom--><g id="link_Supply_Kingdom"><path codeLine="66" d="M490,241.5419 C490,258.2819 490,284.0919 490,300.7819 " fill="none" id="Supply-Kingdom" style="stroke:#181818;stroke-width:1.0;"/></g><!--reverse link Base to Pile--><g id="link_Base_Pile"><path codeLine="68" d="M611.7,323.3619 C611.7,323.3619 626.5,323.3619 626.5,323.3619 C626.5,323.3619 626.5,363.3519 626.5,392.7219 " fill="none" id="Base-backto-Pile" style="stroke:#181818;stroke-width:1.0;"/><polygon fill="#181818" points="598.7,323.3619,604.7,327.3619,610.7,323.3619,604.7,319.3619,598.7,323.3619" style="stroke:#181818;stroke-width:1.0;"/><text fill="#000000" font-family="sans-serif" font-size="13" lengthAdjust="spacing" textLength="15" x="604.7188" y="381.2501">1..</text></g><!--reverse link Kingdom to Pile--><g id="link_Kingdom_Pile"><path codeLine="69" d="M452,347.9319 C452,347.9319 452,413.3619 452,413.3619 C452,413.3619 544,413.3619 602.57,413.3619 " fill="none" id="Kingdom-backto-Pile" style="stroke:#181818;stroke-width:1.0;"/><polygon fill="#181818" points="452,334.9319,448,340.9319,452,346.9319,456,340.9319,452,334.9319" style="stroke:#181818;stroke-width:1.0;"/><text fill="#000000" font-family="sans-serif" font-size="13" lengthAdjust="spacing" textLength="22" x="573.0837" y="408.0775">10..</text></g><!--reverse link Non-Supply to Pile--><g id="link_Non-Supply_Pile"><path codeLine="70" d="M650,255.8219 C650,255.8219 650,392.7319 650,392.7319 " fill="none" id="Non-Supply-backto-Pile" style="stroke:#181818;stroke-width:1.0;"/><polygon fill="#181818" points="650,242.8219,646,248.8219,650,254.8219,654,248.8219,650,242.8219" style="stroke:#181818;stroke-width:1.0;"/><text fill="#000000" font-family="sans-serif" font-size="13" lengthAdjust="spacing" textLength="15" x="633.3594" y="381.2623">1..</text></g><!--reverse link Trash to Pile--><g id="link_Trash_Pile"><path codeLine="72" d="M392.25,255.9419 C392.25,255.9419 392.25,433.3619 392.25,433.3619 C392.25,433.3619 528.31,433.3619 602.72,433.3619 " fill="none" id="Trash-backto-Pile" style="stroke:#181818;stroke-width:1.0;"/><polygon fill="#181818" points="392.25,242.9419,388.25,248.9419,392.25,254.9419,396.25,248.9419,392.25,242.9419" style="stroke:#181818;stroke-width:1.0;"/><text fill="#000000" font-family="sans-serif" font-size="13" lengthAdjust="spacing" textLength="7" x="587.9443" y="430.6787">1</text></g><!--reverse link Pile to Card--><g id="link_Pile_Card"><path codeLine="74" d="M711.73,433.3619 C711.73,433.3619 956.5,433.3619 956.5,433.3619 C956.5,433.3619 956.5,485.6919 956.5,513.0719 " fill="none" id="Pile-backto-Card" style="stroke:#181818;stroke-width:1.0;"/><polygon fill="#181818" points="698.73,433.3619,704.73,437.3619,710.73,433.3619,704.73,429.3619,698.73,433.3619" style="stroke:#181818;stroke-width:1.0;"/><text fill="#000000" font-family="sans-serif" font-size="13" lengthAdjust="spacing" textLength="3" x="946.4016" y="464.0295">&#160;</text><text fill="#000000" font-family="sans-serif" font-size="13" lengthAdjust="spacing" textLength="6" x="943.4016" y="482.8535">*</text><text fill="#000000" font-family="sans-serif" font-size="13" lengthAdjust="spacing" textLength="56" x="893.4016" y="501.6775">{ordered}</text></g><!--reverse link Play Area to Card--><g id="link_Play Area_Card"><path codeLine="76" d="M977.5,347.9119 C977.5,347.9119 977.5,513.0019 977.5,513.0019 " fill="none" id="Play Area-backto-Card" style="stroke:#181818;stroke-width:1.0;"/><polygon fill="#181818" points="977.5,334.9119,973.5,340.9119,977.5,346.9119,981.5,340.9119,977.5,334.9119" style="stroke:#181818;stroke-width:1.0;"/><text fill="#000000" font-family="sans-serif" font-size="13" lengthAdjust="spacing" textLength="6" x="974.0781" y="501.5061">*</text></g><!--reverse link Hand to Card--><g id="link_Hand_Card"><path codeLine="77" d="M1082,347.9819 C1082,347.9819 1082,530.3619 1082,530.3619 C1082,530.3619 1032.77,530.3619 998.73,530.3619 " fill="none" id="Hand-backto-Card" style="stroke:#181818;stroke-width:1.0;"/><polygon fill="#181818" points="1082,334.9819,1078,340.9819,1082,346.9819,1086,340.9819,1082,334.9819" style="stroke:#181818;stroke-width:1.0;"/><text fill="#000000" font-family="sans-serif" font-size="13" lengthAdjust="spacing" textLength="6" x="1006.3272" y="525.7821">*</text></g><!--SRC=[TL9DQzmm4BthLmm-BgpRzD232IbfGbeeXD84Uib5jcRN8h9a93d5BFlVgv7ahuGzsVDctdoy9o-zGhY57xn3C0UunmwTHjPAWO1TxqVeiAlHEkPUfUwvvHqegT6FVI1Otnh6jF48nTyMBO9qu5k4nkW6Uqyjh-kRvy7gwq_r3L39jmAu0u8U0szY_q5yushWuVzVYw65fJuEmRLcK09uumUkr0XrQAwuS-XYdplwJuqYd2uvCG0fAd3UIdqCWVFyY1KyqIU4FaolG6hFpXFlj-9Z67fQ0AbIemDlSEWhg8rHLE_DCIr8oLHxZyth4aZNS2lckA3MS6kH5pFsasjneTVJqFTgNDYFHkyJjj2VBNVj1Vvtxd0EVeNpXUakbDA9St17Ev-p7meFqJnIiwfSbkr1eMl131uuTCQIpLrliKNjv1j2O4gZYHQVm60jQa_I1tTG2ye7cw91k_r-EdIEDvVEQ3frAVfIbbzVzCbO4TwIE1VPECQoWLIp4dn1e-HB62rRXTaqHdYQT5KaWN9g2xAu5vGaLBbwXMd_Z_Zwk8_PYHOcHFkMS3AG4PvNACkyH4vc-FECRuQzu-J5jyV4jnwX5xlRg1jV1LifcifsEKEYRf3_]--></g></svg>