<svg xmlns="http://www.w3.org/2000/svg" xmlns:xlink="http://www.w3.org/1999/xlink" contentStyleType="text/css" height="883px" preserveAspectRatio="none" style="width:929px;height:883px;background:#FFFFFF;" version="1.1" viewBox="0 0 929 883" width="929px" zoomAndPan="magnify">
  <defs/>
  <g>
    <text fill="#000000" font-family="sans-serif" font-size="14" font-weight="bold" lengthAdjust="spacing" textLength="238" x="344" y="36.2399">How is a game of Demesne played?</text>
    <path d="M79,51.2719 L79,80.0959 L445,80.0959 L445,61.2719 L435,51.2719 L79,51.2719 " fill="#FEFFDD" style="stroke:#181818;stroke-width:0.5;"/>
    <path d="M435,51.2719 L435,61.2719 L445,61.2719 L435,51.2719 " fill="#FEFFDD" style="stroke:#181818;stroke-width:0.5;"/>
    <text fill="#000000" font-family="sans-serif" font-size="13" lengthAdjust="spacing" textLength="345" x="85" y="71.3519">It's not really clear that explicit stages are necessary here</text>
    <ellipse cx="475" cy="65.6839" fill="#222222" rx="10" ry="10" style="stroke:#222222;stroke-width:1.0;"/>
    <rect fill="none" height="284.6881" rx="12.5" ry="12.5" style="stroke:#33333333;stroke-width:1.5;" width="907" x="11" y="90.0959"/>
    <path d="M145,90.0959 L145,103.3678 L135,113.3678 L11,113.3678 " fill="none" style="stroke:#33333333;stroke-width:1.5;"/>
    <text fill="#000000" font-family="sans-serif" font-size="14" lengthAdjust="spacing" textLength="41" x="14" y="107.3359">Stage:</text>
    <a href="game-class.svg" target="_top" title="Game" xlink:actuate="onRequest" xlink:href="game-class.svg" xlink:show="new" xlink:title="Game" xlink:type="simple">
      <text fill="#000000" font-family="sans-serif" font-size="14" lengthAdjust="spacing" textLength="39" x="58" y="107.3359">Game</text>
    </a>
    <text fill="#000000" font-family="sans-serif" font-size="14" lengthAdjust="spacing" textLength="38" x="100" y="107.3359">setup</text>
    <path d="M31,133.3678 L31,199.8399 L227,199.8399 L227,143.3678 L217,133.3678 L31,133.3678 " fill="#FEFFDD" style="stroke:#181818;stroke-width:0.5;"/>
    <path d="M217,133.3678 L217,143.3678 L227,143.3678 L217,133.3678 " fill="#FEFFDD" style="stroke:#181818;stroke-width:0.5;"/>
    <text fill="#000000" font-family="sans-serif" font-size="13" lengthAdjust="spacing" textLength="175" x="37" y="153.4479">TODO: Clarify how setup and</text>
    <text fill="#000000" font-family="sans-serif" font-size="13" lengthAdjust="spacing" textLength="168" x="37" y="172.2719">choice-making will actually</text>
    <text fill="#000000" font-family="sans-serif" font-size="13" lengthAdjust="spacing" textLength="100" x="37" y="191.0959">be implemented</text>
    <path d="M38.5,219.8399 L38.5,352.784 L219.5,352.784 L219.5,229.8399 L209.5,219.8399 L38.5,219.8399 " fill="#FEFFDD" style="stroke:#181818;stroke-width:0.5;"/>
    <path d="M209.5,219.8399 L209.5,229.8399 L219.5,229.8399 L209.5,219.8399 " fill="#FEFFDD" style="stroke:#181818;stroke-width:0.5;"/>
    <text fill="#000000" font-family="sans-serif" font-size="13" lengthAdjust="spacing" textLength="114" x="44.5" y="239.9199">The specific size of</text>
    <text fill="#000000" font-family="sans-serif" font-size="13" lengthAdjust="spacing" textLength="29" x="44.5" y="258.7439">each</text>
    <a href="base-card-class.svg" target="_top" title="Base Cards" xlink:actuate="onRequest" xlink:href="base-card-class.svg" xlink:show="new" xlink:title="Base Cards" xlink:type="simple">
      <text fill="#000000" font-family="sans-serif" font-size="13" lengthAdjust="spacing" text-decoration="wavy underline" textLength="60" x="76.5" y="258.7439">Base Card</text>
    </a>
    <text fill="#000000" font-family="sans-serif" font-size="13" lengthAdjust="spacing" textLength="23" x="139.5" y="258.7439">Pile</text>
    <text fill="#000000" font-family="sans-serif" font-size="13" lengthAdjust="spacing" textLength="145" x="44.5" y="277.5679">depends on the number</text>
    <text fill="#000000" font-family="sans-serif" font-size="13" lengthAdjust="spacing" textLength="133" x="44.5" y="296.392">of players in the game</text>
    <line style="stroke:#181818;stroke-width:1.0;" x1="38.5" x2="219.5" y1="305.136" y2="305.136"/>
    <line style="stroke:#181818;stroke-width:1.0;" x1="38.5" x2="219.5" y1="307.136" y2="307.136"/>
    <text fill="#000000" font-family="sans-serif" font-size="13" lengthAdjust="spacing" textLength="143" x="44.5" y="325.216">TODO: Figure out a way</text>
    <text fill="#000000" font-family="sans-serif" font-size="13" lengthAdjust="spacing" textLength="160" x="44.5" y="344.04">to document the pile sizes</text>
    <path d="M734.5,142.7798 L734.5,256.8999 L884.5,256.8999 L884.5,152.7798 L874.5,142.7798 L734.5,142.7798 " fill="#FEFFDD" style="stroke:#181818;stroke-width:0.5;"/>
    <path d="M874.5,142.7798 L874.5,152.7798 L884.5,152.7798 L874.5,142.7798 " fill="#FEFFDD" style="stroke:#181818;stroke-width:0.5;"/>
    <text fill="#000000" font-family="sans-serif" font-size="13" lengthAdjust="spacing" textLength="118" x="740.5" y="162.8599">Players collectively</text>
    <text fill="#000000" font-family="sans-serif" font-size="13" lengthAdjust="spacing" textLength="59" x="740.5" y="181.6839">select ten</text>
    <a href="kingdom-card-class.svg" target="_top" title="Kingdom Cards" xlink:actuate="onRequest" xlink:href="kingdom-card-class.svg" xlink:show="new" xlink:title="Kingdom Cards" xlink:type="simple">
      <text fill="#000000" font-family="sans-serif" font-size="13" lengthAdjust="spacing" text-decoration="wavy underline" textLength="61" x="802.5" y="181.6839">Kingdoms</text>
    </a>
    <text fill="#000000" font-family="sans-serif" font-size="13" lengthAdjust="spacing" textLength="72" x="740.5" y="200.5079">to play with</text>
    <line style="stroke:#181818;stroke-width:1.0;" x1="734.5" x2="884.5" y1="209.2519" y2="209.2519"/>
    <line style="stroke:#181818;stroke-width:1.0;" x1="734.5" x2="884.5" y1="211.2519" y2="211.2519"/>
    <text fill="#000000" font-family="sans-serif" font-size="13" lengthAdjust="spacing" textLength="129" x="740.5" y="229.3319">TODO: Flesh out how</text>
    <text fill="#000000" font-family="sans-serif" font-size="13" lengthAdjust="spacing" textLength="114" x="740.5" y="248.1559">this actually works</text>
    <path d="M721,276.8999 L721,343.372 L898,343.372 L898,286.8999 L888,276.8999 L721,276.8999 " fill="#FEFFDD" style="stroke:#181818;stroke-width:0.5;"/>
    <path d="M888,276.8999 L888,286.8999 L898,286.8999 L888,276.8999 " fill="#FEFFDD" style="stroke:#181818;stroke-width:0.5;"/>
    <text fill="#000000" font-family="sans-serif" font-size="13" lengthAdjust="spacing" textLength="129" x="727" y="296.9799">In the base game, the</text>
    <a href="non-supply-class.svg" target="_top" title="Non-Supply" xlink:actuate="onRequest" xlink:href="non-supply-class.svg" xlink:show="new" xlink:title="Non-Supply" xlink:type="simple">
      <text fill="#000000" font-family="sans-serif" font-size="13" lengthAdjust="spacing" text-decoration="wavy underline" textLength="73" x="727" y="315.804">Non-Supply</text>
    </a>
    <text fill="#000000" font-family="sans-serif" font-size="13" lengthAdjust="spacing" textLength="23" x="803" y="315.804">just</text>
    <text fill="#000000" font-family="sans-serif" font-size="13" lengthAdjust="spacing" textLength="93" x="727" y="334.628">amounts to the</text>
    <a href="trash-pile-class.svg" target="_top" title="Trash" xlink:actuate="onRequest" xlink:href="trash-pile-class.svg" xlink:show="new" xlink:title="Trash" xlink:type="simple">
      <text fill="#000000" font-family="sans-serif" font-size="13" lengthAdjust="spacing" text-decoration="wavy underline" textLength="34" x="823" y="334.628">Trash</text>
    </a>
    <text fill="#000000" font-family="sans-serif" font-size="13" lengthAdjust="spacing" textLength="23" x="860" y="334.628">pile</text>
    <rect fill="#555555" height="6" rx="2.5" ry="2.5" style="stroke:#555555;stroke-width:1.0;" width="474" x="237" y="162.1998"/>
    <rect fill="#F1F1F1" height="37.3761" rx="12.5" ry="12.5" style="stroke:#181818;stroke-width:0.5;" width="153" x="251" y="188.1998"/>
    <text fill="#000000" font-family="sans-serif" font-size="12" lengthAdjust="spacing" textLength="133" x="261" y="212.1199">Determine player count</text>
    <rect fill="#F1F1F1" height="37.3761" rx="12.5" ry="12.5" style="stroke:#181818;stroke-width:0.5;" width="120" x="267.5" y="260.5759"/>
    <text fill="#000000" font-family="sans-serif" font-size="12" lengthAdjust="spacing" textLength="100" x="277.5" y="284.496">Setup Base Cards</text>
    <rect fill="#F1F1F1" height="37.3761" rx="12.5" ry="12.5" style="stroke:#181818;stroke-width:0.5;" width="151" x="432" y="224.3879"/>
    <text fill="#000000" font-family="sans-serif" font-size="12" lengthAdjust="spacing" textLength="131" x="442" y="248.308">Choose Kingdom Cards</text>
    <rect fill="#F1F1F1" height="37.3761" rx="12.5" ry="12.5" style="stroke:#181818;stroke-width:0.5;" width="88" x="611" y="224.3879"/>
    <text fill="#000000" font-family="sans-serif" font-size="12" lengthAdjust="spacing" textLength="68" x="621" y="248.308">Setup Trash</text>
    <rect fill="#555555" height="6" rx="2.5" ry="2.5" style="stroke:#555555;stroke-width:1.0;" width="474" x="237" y="317.952"/>
    <rect fill="none" height="243.0242" rx="12.5" ry="12.5" style="stroke:#33333333;stroke-width:1.5;" width="231.5" x="378.5" y="384.784"/>
    <path d="M460.5,384.784 L460.5,398.0559 L450.5,408.0559 L378.5,408.0559 " fill="none" style="stroke:#33333333;stroke-width:1.5;"/>
    <text fill="#000000" font-family="sans-serif" font-size="14" lengthAdjust="spacing" textLength="72" x="381.5" y="402.0239">Stage: Play</text>
    <rect fill="#F1F1F1" height="37.3761" rx="12.5" ry="12.5" style="stroke:#181818;stroke-width:0.5;" width="81" x="434.5" y="425.0559"/>
    <text fill="#000000" font-family="sans-serif" font-size="12" lengthAdjust="spacing" textLength="61" x="444.5" y="448.976">Deal decks</text>
    <rect fill="#F1F1F1" height="37.3761" rx="12.5" ry="12.5" style="stroke:#181818;stroke-width:0.5;" width="173" x="388.5" y="526.432"/>
    <a href="turn-activity.svg" target="_top" title="How is a turn played?" xlink:actuate="onRequest" xlink:href="turn-activity.svg" xlink:show="new" xlink:title="How is a turn played?" xlink:type="simple">
      <text fill="#000000" font-family="sans-serif" font-size="12" lengthAdjust="spacing" textLength="134" x="398.5" y="550.3521">Players take their turns</text>
    </a>
    <a href="turn-activity.svg" target="_top" title="How is a turn played?" xlink:actuate="onRequest" xlink:href="turn-activity.svg" xlink:show="new" xlink:title="How is a turn played?" xlink:type="simple">
      <path d="M542.5,537.432 L544.5,537.432 L544.5,543.432 L550.5,543.432 L550.5,551.432 L548.5,551.432 L548.5,545.432 L544.5,545.432 L544.5,551.432 L542.5,551.432 L542.5,545.432 L538.5,545.432 L538.5,551.432 L536.5,551.432 L536.5,543.432 L542.5,543.432 " fill="#181818" style="stroke:;stroke-width:0.0;stroke-dasharray:;"/>
    </a>
    <polygon fill="#F1F1F1" points="475,482.432,487,494.432,475,506.432,463,494.432,475,482.432" style="stroke:#181818;stroke-width:0.5;"/>
    <polygon fill="#F1F1F1" points="475,583.8081,475,583.8081,487,595.8081,475,607.8081,475,607.8081,463,595.8081,475,583.8081" style="stroke:#181818;stroke-width:0.5;"/>
    <text fill="#000000" font-family="sans-serif" font-size="11" lengthAdjust="spacing" textLength="126" x="479" y="620.568">[End condition satisfied]</text>
    <rect fill="none" height="89.648" rx="12.5" ry="12.5" style="stroke:#33333333;stroke-width:1.5;" width="113" x="418.5" y="639.3401"/>
    <path d="M521.5,639.3401 L521.5,652.612 L511.5,662.612 L418.5,662.612 " fill="none" style="stroke:#33333333;stroke-width:1.5;"/>
    <text fill="#000000" font-family="sans-serif" font-size="14" lengthAdjust="spacing" textLength="93" x="421.5" y="656.5801">Stage: Scoring</text>
    <rect fill="#F1F1F1" height="37.3761" rx="12.5" ry="12.5" style="stroke:#181818;stroke-width:0.5;" width="86" x="432" y="679.612"/>
    <text fill="#000000" font-family="sans-serif" font-size="12" lengthAdjust="spacing" textLength="66" x="442" y="703.5321">Tally scores</text>
    <rect fill="none" height="89.648" rx="12.5" ry="12.5" style="stroke:#33333333;stroke-width:1.5;" width="122" x="414" y="740.5201"/>
    <path d="M526,740.5201 L526,753.7921 L516,763.7921 L414,763.7921 " fill="none" style="stroke:#33333333;stroke-width:1.5;"/>
    <text fill="#000000" font-family="sans-serif" font-size="14" lengthAdjust="spacing" textLength="102" x="417" y="757.7601">Stage: Finished</text>
    <rect fill="#F1F1F1" height="37.3761" rx="12.5" ry="12.5" style="stroke:#181818;stroke-width:0.5;" width="98" x="426" y="780.7921"/>
    <text fill="#000000" font-family="sans-serif" font-size="12" lengthAdjust="spacing" textLength="78" x="436" y="804.7122">Declare victor</text>
    <ellipse cx="475" cy="861.1682" fill="none" rx="11" ry="11" style="stroke:#222222;stroke-width:1.0;"/>
    <ellipse cx="475" cy="861.1682" fill="#222222" rx="6" ry="6" style="stroke:#111111;stroke-width:1.0;"/>
    <line style="stroke:#181818;stroke-width:1.0;" x1="327.5" x2="327.5" y1="225.5759" y2="260.5759"/>
    <polygon fill="#181818" points="323.5,250.5759,327.5,260.5759,331.5,250.5759,327.5,254.5759" style="stroke:#181818;stroke-width:1.0;"/>
    <line style="stroke:#181818;stroke-width:1.0;" x1="327.5" x2="327.5" y1="168.1998" y2="188.1998"/>
    <polygon fill="#181818" points="323.5,178.1998,327.5,188.1998,331.5,178.1998,327.5,182.1998" style="stroke:#181818;stroke-width:1.0;"/>
    <line style="stroke:#181818;stroke-width:1.0;" x1="507.5" x2="507.5" y1="168.1998" y2="224.3879"/>
    <polygon fill="#181818" points="503.5,214.3879,507.5,224.3879,511.5,214.3879,507.5,218.3879" style="stroke:#181818;stroke-width:1.0;"/>
    <line style="stroke:#181818;stroke-width:1.0;" x1="655" x2="655" y1="168.1998" y2="224.3879"/>
    <polygon fill="#181818" points="651,214.3879,655,224.3879,659,214.3879,655,218.3879" style="stroke:#181818;stroke-width:1.0;"/>
    <line style="stroke:#181818;stroke-width:1.0;" x1="327.5" x2="327.5" y1="297.952" y2="317.952"/>
    <polygon fill="#181818" points="323.5,307.952,327.5,317.952,331.5,307.952,327.5,311.952" style="stroke:#181818;stroke-width:1.0;"/>
    <line style="stroke:#181818;stroke-width:1.0;" x1="507.5" x2="507.5" y1="261.764" y2="317.952"/>
    <polygon fill="#181818" points="503.5,307.952,507.5,317.952,511.5,307.952,507.5,311.952" style="stroke:#181818;stroke-width:1.0;"/>
    <line style="stroke:#181818;stroke-width:1.0;" x1="655" x2="655" y1="261.764" y2="317.952"/>
    <polygon fill="#181818" points="651,307.952,655,317.952,659,307.952,655,311.952" style="stroke:#181818;stroke-width:1.0;"/>
    <line style="stroke:#181818;stroke-width:1.0;" x1="475" x2="475" y1="75.6839" y2="162.1998"/>
    <polygon fill="#181818" points="471,152.1998,475,162.1998,479,152.1998,475,156.1998" style="stroke:#181818;stroke-width:1.0;"/>
    <line style="stroke:#181818;stroke-width:1.0;" x1="475" x2="475" y1="506.432" y2="526.432"/>
    <polygon fill="#181818" points="471,516.432,475,526.432,479,516.432,475,520.432" style="stroke:#181818;stroke-width:1.0;"/>
    <line style="stroke:#181818;stroke-width:1.0;" x1="487" x2="573.5" y1="595.8081" y2="595.8081"/>
    <polygon fill="#181818" points="569.5,555.1201,573.5,545.1201,577.5,555.1201,573.5,551.1201" style="stroke:#181818;stroke-width:1.0;"/>
    <line style="stroke:#181818;stroke-width:1.0;" x1="573.5" x2="573.5" y1="494.432" y2="595.8081"/>
    <line style="stroke:#181818;stroke-width:1.0;" x1="573.5" x2="487" y1="494.432" y2="494.432"/>
    <polygon fill="#181818" points="497,490.432,487,494.432,497,498.432,493,494.432" style="stroke:#181818;stroke-width:1.0;"/>
    <line style="stroke:#181818;stroke-width:1.0;" x1="475" x2="475" y1="563.8081" y2="583.8081"/>
    <polygon fill="#181818" points="471,573.8081,475,583.8081,479,573.8081,475,577.8081" style="stroke:#181818;stroke-width:1.0;"/>
    <line style="stroke:#181818;stroke-width:1.0;" x1="475" x2="475" y1="462.432" y2="482.432"/>
    <polygon fill="#181818" points="471,472.432,475,482.432,479,472.432,475,476.432" style="stroke:#181818;stroke-width:1.0;"/>
    <line style="stroke:#181818;stroke-width:1.0;" x1="475" x2="475" y1="323.952" y2="425.0559"/>
    <polygon fill="#181818" points="471,415.0559,475,425.0559,479,415.0559,475,419.0559" style="stroke:#181818;stroke-width:1.0;"/>
    <line style="stroke:#181818;stroke-width:1.0;" x1="475" x2="475" y1="607.8081" y2="679.612"/>
    <polygon fill="#181818" points="471,669.612,475,679.612,479,669.612,475,673.612" style="stroke:#181818;stroke-width:1.0;"/>
    <line style="stroke:#181818;stroke-width:1.0;" x1="475" x2="475" y1="716.9882" y2="780.7921"/>
    <polygon fill="#181818" points="471,770.7921,475,780.7921,479,770.7921,475,774.7921" style="stroke:#181818;stroke-width:1.0;"/>
    <line style="stroke:#181818;stroke-width:1.0;" x1="475" x2="475" y1="818.1682" y2="850.1682"/>
    <polygon fill="#181818" points="471,840.1682,475,850.1682,479,840.1682,475,844.1682" style="stroke:#181818;stroke-width:1.0;"/>
    <!--SRC=[XLJVRzCm47wU_ufZ8B59b4aWNhOn95e64uXDT3nL5NATQsFgs97FMIbJzxTpvwJTgdKY3r5olx_lFZlPv12-X0LO0WqpNI64AGomGl88jTDBB3uecbjVwwWhA9SrHcVzl1zSY31nsintkN_w8dyWJBKZLEgPzSOr1GBLqIQaewPohsj-ANLAQUdmJ769P9CD7cuLm3TERfiyVzizRFqH6b_qG_GOuSqxjLAdHrsseiJvIarTqCdw6VYGa3C0Bj9BaZ-8g9rRWd6e8wHI9y0_jRF69k3a6J854S6ZGI8Tbr1YH8M-Q4izc6z_AE77C1e9OptZD5460xUVsR02UO_7G9YQUf_Xx4r3d2krTpp0XB6oQsuZ60QKJiGrb63ug0cXhsD1OfGqq3DjlKJqon3O-vNH5Q5wAggjSnqrbUAK-Rlk0WCSJfFQ4rxW-d9mUGnzfwETCbfMGHuOj2-w25C6Qx1NwRamkh3EWJQf4HgxY0c2hMh7Wl49YxPTIzVZTgLi7usTMWDa_uhKEXTgKyBTtMWqOVWzmy2sIBqdPNLFq7XyTmTNrc5Ney2QcnFmVX9tyaqrmTZvMDCjtmIsTSlYEkTxVhOOERUpXeKGciHdOg7NK5E08fX6aEOIDVVEEEWnx6XdvHhtLTVP1EVG97k36_O8nG89VKO_RpVxc82jbQ_M2Y2Xu7uuGSWxIkMJk1nIcM7nhjTvfPpyRgUmOA7y1yr5ovyiAfFuIduxds3mmVUegMktt4BmdSt3R5x1_NVUuU-6riLr9SU118qqaNf9XDmJhhVgPNslMfddAdLMmcRorQxpAfkGuvYl1JwBsh5gp5mEaLWYAqYd_9a3k7aJVK_BpcnQTfqtjwKurrVaQhFbfESemzkO0mXENr0pMTVu5TbzDXwVF6W8YrAKT72OBwc3qIV6O88lsjc9RpEQMYp6Xxj13Ks8h8VzV6lorDTvayHMP60xKywjjrHYiSaP87FBah-n9eMOioY5Mlq3]-->
  </g>
</svg>
