<?xml version="1.0" encoding="us-ascii" standalone="no"?><svg xmlns="http://www.w3.org/2000/svg" xmlns:xlink="http://www.w3.org/1999/xlink" contentStyleType="text/css" height="1019px" preserveAspectRatio="none" style="width:273px;height:1019px;background:#FFFFFF;" version="1.1" viewBox="0 0 273 1019" width="273px" zoomAndPan="magnify"><defs/><g><text fill="#000000" font-family="sans-serif" font-size="14" font-weight="bold" lengthAdjust="spacing" textLength="230" x="20" y="36.2399">How is a turn of Demesne played?</text><ellipse cx="136.5" cy="61.2719" fill="#222222" rx="10" ry="10" style="stroke:#222222;stroke-width:1.0;"/><rect fill="#F1F1F1" height="37.3761" rx="12.5" ry="12.5" style="stroke:#181818;stroke-width:0.5;" width="128" x="72.5" y="91.2719"/><text fill="#000000" font-family="sans-serif" font-size="12" lengthAdjust="spacing" textLength="108" x="82.5" y="115.192">Begin Action Phase</text><rect fill="#F1F1F1" height="37.3761" rx="12.5" ry="12.5" style="stroke:#181818;stroke-width:0.5;" width="112" x="80.5" y="192.648"/><text fill="#000000" font-family="sans-serif" font-size="12" lengthAdjust="spacing" textLength="92" x="90.5" y="216.5681">Play Action Card</text><polygon fill="#F1F1F1" points="136.5,148.648,148.5,160.648,136.5,172.648,124.5,160.648,136.5,148.648" style="stroke:#181818;stroke-width:0.5;"/><polygon fill="#F1F1F1" points="136.5,250.0242,136.5,250.0242,148.5,262.0242,136.5,274.0242,136.5,274.0242,124.5,262.0242,136.5,250.0242" style="stroke:#181818;stroke-width:0.5;"/><text fill="#000000" font-family="sans-serif" font-size="11" lengthAdjust="spacing" textLength="89" x="148.5" y="258.8562">[Willing and able]</text><rect fill="#F1F1F1" height="37.3761" rx="12.5" ry="12.5" style="stroke:#181818;stroke-width:0.5;" width="117" x="78" y="294.0242"/><text fill="#000000" font-family="sans-serif" font-size="12" lengthAdjust="spacing" textLength="97" x="88" y="317.9443">End Action Phase</text><rect fill="#F1F1F1" height="37.3761" rx="12.5" ry="12.5" style="stroke:#181818;stroke-width:0.5;" width="114" x="79.5" y="351.4003"/><text fill="#000000" font-family="sans-serif" font-size="12" lengthAdjust="spacing" textLength="94" x="89.5" y="375.3204">Begin Buy Phase</text><rect fill="#F1F1F1" height="37.3761" rx="12.5" ry="12.5" style="stroke:#181818;stroke-width:0.5;" width="128" x="72.5" y="452.7764"/><text fill="#000000" font-family="sans-serif" font-size="12" lengthAdjust="spacing" textLength="108" x="82.5" y="476.6965">Play Treasure Card</text><polygon fill="#F1F1F1" points="136.5,408.7764,148.5,420.7764,136.5,432.7764,124.5,420.7764,136.5,408.7764" style="stroke:#181818;stroke-width:0.5;"/><polygon fill="#F1F1F1" points="136.5,510.1525,136.5,510.1525,148.5,522.1525,136.5,534.1525,136.5,534.1525,124.5,522.1525,136.5,510.1525" style="stroke:#181818;stroke-width:0.5;"/><text fill="#000000" font-family="sans-serif" font-size="11" lengthAdjust="spacing" textLength="89" x="148.5" y="518.9845">[Willing and able]</text><rect fill="#F1F1F1" height="37.3761" rx="12.5" ry="12.5" style="stroke:#181818;stroke-width:0.5;" width="71" x="101" y="598.1525"/><text fill="#000000" font-family="sans-serif" font-size="12" lengthAdjust="spacing" textLength="51" x="111" y="622.0726">Buy Card</text><polygon fill="#F1F1F1" points="136.5,554.1525,148.5,566.1525,136.5,578.1525,124.5,566.1525,136.5,554.1525" style="stroke:#181818;stroke-width:0.5;"/><polygon fill="#F1F1F1" points="136.5,655.5286,136.5,655.5286,148.5,667.5286,136.5,679.5286,136.5,679.5286,124.5,667.5286,136.5,655.5286" style="stroke:#181818;stroke-width:0.5;"/><text fill="#000000" font-family="sans-serif" font-size="11" lengthAdjust="spacing" textLength="89" x="148.5" y="664.3607">[Willing and able]</text><rect fill="#F1F1F1" height="37.3761" rx="12.5" ry="12.5" style="stroke:#181818;stroke-width:0.5;" width="103" x="85" y="699.5286"/><text fill="#000000" font-family="sans-serif" font-size="12" lengthAdjust="spacing" textLength="83" x="95" y="723.4487">End Buy Phase</text><rect fill="#F1F1F1" height="37.3761" rx="12.5" ry="12.5" style="stroke:#181818;stroke-width:0.5;" width="144" x="64.5" y="756.9048"/><text fill="#000000" font-family="sans-serif" font-size="12" lengthAdjust="spacing" textLength="124" x="74.5" y="780.8249">Begin Clean Up Phase</text><rect fill="#F1F1F1" height="37.3761" rx="12.5" ry="12.5" style="stroke:#181818;stroke-width:0.5;" width="212" x="30.5" y="814.2809"/><text fill="#000000" font-family="sans-serif" font-size="12" lengthAdjust="spacing" textLength="192" x="40.5" y="838.201">Discard all Cards in hand or in play</text><rect fill="#F1F1F1" height="37.3761" rx="12.5" ry="12.5" style="stroke:#181818;stroke-width:0.5;" width="155" x="59" y="871.657"/><text fill="#000000" font-family="sans-serif" font-size="12" lengthAdjust="spacing" textLength="135" x="69" y="895.5771">Draw five Cards to hand</text><rect fill="#F1F1F1" height="37.3761" rx="12.5" ry="12.5" style="stroke:#181818;stroke-width:0.5;" width="133" x="70" y="929.0331"/><text fill="#000000" font-family="sans-serif" font-size="12" lengthAdjust="spacing" textLength="113" x="80" y="952.9532">End Clean Up Phase</text><ellipse cx="136.5" cy="997.4092" fill="none" rx="11" ry="11" style="stroke:#222222;stroke-width:1.0;"/><ellipse cx="136.5" cy="997.4092" fill="#222222" rx="6" ry="6" style="stroke:#111111;stroke-width:1.0;"/><line style="stroke:#181818;stroke-width:1.0;" x1="136.5" x2="136.5" y1="71.2719" y2="91.2719"/><polygon fill="#181818" points="132.5,81.2719,136.5,91.2719,140.5,81.2719,136.5,85.2719" style="stroke:#181818;stroke-width:1.0;"/><line style="stroke:#181818;stroke-width:1.0;" x1="136.5" x2="136.5" y1="172.648" y2="192.648"/><polygon fill="#181818" points="132.5,182.648,136.5,192.648,140.5,182.648,136.5,186.648" style="stroke:#181818;stroke-width:1.0;"/><line style="stroke:#181818;stroke-width:1.0;" x1="148.5" x2="204.5" y1="262.0242" y2="262.0242"/><polygon fill="#181818" points="200.5,221.3361,204.5,211.3361,208.5,221.3361,204.5,217.3361" style="stroke:#181818;stroke-width:1.0;"/><line style="stroke:#181818;stroke-width:1.0;" x1="204.5" x2="204.5" y1="160.648" y2="262.0242"/><line style="stroke:#181818;stroke-width:1.0;" x1="204.5" x2="148.5" y1="160.648" y2="160.648"/><polygon fill="#181818" points="158.5,156.648,148.5,160.648,158.5,164.648,154.5,160.648" style="stroke:#181818;stroke-width:1.0;"/><line style="stroke:#181818;stroke-width:1.0;" x1="136.5" x2="136.5" y1="230.0242" y2="250.0242"/><polygon fill="#181818" points="132.5,240.0242,136.5,250.0242,140.5,240.0242,136.5,244.0242" style="stroke:#181818;stroke-width:1.0;"/><line style="stroke:#181818;stroke-width:1.0;" x1="136.5" x2="136.5" y1="128.648" y2="148.648"/><polygon fill="#181818" points="132.5,138.648,136.5,148.648,140.5,138.648,136.5,142.648" style="stroke:#181818;stroke-width:1.0;"/><line style="stroke:#181818;stroke-width:1.0;" x1="136.5" x2="136.5" y1="274.0242" y2="294.0242"/><polygon fill="#181818" points="132.5,284.0242,136.5,294.0242,140.5,284.0242,136.5,288.0242" style="stroke:#181818;stroke-width:1.0;"/><line style="stroke:#181818;stroke-width:1.0;" x1="136.5" x2="136.5" y1="331.4003" y2="351.4003"/><polygon fill="#181818" points="132.5,341.4003,136.5,351.4003,140.5,341.4003,136.5,345.4003" style="stroke:#181818;stroke-width:1.0;"/><line style="stroke:#181818;stroke-width:1.0;" x1="136.5" x2="136.5" y1="432.7764" y2="452.7764"/><polygon fill="#181818" points="132.5,442.7764,136.5,452.7764,140.5,442.7764,136.5,446.7764" style="stroke:#181818;stroke-width:1.0;"/><line style="stroke:#181818;stroke-width:1.0;" x1="148.5" x2="212.5" y1="522.1525" y2="522.1525"/><polygon fill="#181818" points="208.5,481.4645,212.5,471.4645,216.5,481.4645,212.5,477.4645" style="stroke:#181818;stroke-width:1.0;"/><line style="stroke:#181818;stroke-width:1.0;" x1="212.5" x2="212.5" y1="420.7764" y2="522.1525"/><line style="stroke:#181818;stroke-width:1.0;" x1="212.5" x2="148.5" y1="420.7764" y2="420.7764"/><polygon fill="#181818" points="158.5,416.7764,148.5,420.7764,158.5,424.7764,154.5,420.7764" style="stroke:#181818;stroke-width:1.0;"/><line style="stroke:#181818;stroke-width:1.0;" x1="136.5" x2="136.5" y1="490.1525" y2="510.1525"/><polygon fill="#181818" points="132.5,500.1525,136.5,510.1525,140.5,500.1525,136.5,504.1525" style="stroke:#181818;stroke-width:1.0;"/><line style="stroke:#181818;stroke-width:1.0;" x1="136.5" x2="136.5" y1="388.7764" y2="408.7764"/><polygon fill="#181818" points="132.5,398.7764,136.5,408.7764,140.5,398.7764,136.5,402.7764" style="stroke:#181818;stroke-width:1.0;"/><line style="stroke:#181818;stroke-width:1.0;" x1="136.5" x2="136.5" y1="578.1525" y2="598.1525"/><polygon fill="#181818" points="132.5,588.1525,136.5,598.1525,140.5,588.1525,136.5,592.1525" style="stroke:#181818;stroke-width:1.0;"/><line style="stroke:#181818;stroke-width:1.0;" x1="148.5" x2="184" y1="667.5286" y2="667.5286"/><polygon fill="#181818" points="180,626.8406,184,616.8406,188,626.8406,184,622.8406" style="stroke:#181818;stroke-width:1.0;"/><line style="stroke:#181818;stroke-width:1.0;" x1="184" x2="184" y1="566.1525" y2="667.5286"/><line style="stroke:#181818;stroke-width:1.0;" x1="184" x2="148.5" y1="566.1525" y2="566.1525"/><polygon fill="#181818" points="158.5,562.1525,148.5,566.1525,158.5,570.1525,154.5,566.1525" style="stroke:#181818;stroke-width:1.0;"/><line style="stroke:#181818;stroke-width:1.0;" x1="136.5" x2="136.5" y1="635.5286" y2="655.5286"/><polygon fill="#181818" points="132.5,645.5286,136.5,655.5286,140.5,645.5286,136.5,649.5286" style="stroke:#181818;stroke-width:1.0;"/><line style="stroke:#181818;stroke-width:1.0;" x1="136.5" x2="136.5" y1="534.1525" y2="554.1525"/><polygon fill="#181818" points="132.5,544.1525,136.5,554.1525,140.5,544.1525,136.5,548.1525" style="stroke:#181818;stroke-width:1.0;"/><line style="stroke:#181818;stroke-width:1.0;" x1="136.5" x2="136.5" y1="679.5286" y2="699.5286"/><polygon fill="#181818" points="132.5,689.5286,136.5,699.5286,140.5,689.5286,136.5,693.5286" style="stroke:#181818;stroke-width:1.0;"/><line style="stroke:#181818;stroke-width:1.0;" x1="136.5" x2="136.5" y1="736.9048" y2="756.9048"/><polygon fill="#181818" points="132.5,746.9048,136.5,756.9048,140.5,746.9048,136.5,750.9048" style="stroke:#181818;stroke-width:1.0;"/><line style="stroke:#181818;stroke-width:1.0;" x1="136.5" x2="136.5" y1="794.2809" y2="814.2809"/><polygon fill="#181818" points="132.5,804.2809,136.5,814.2809,140.5,804.2809,136.5,808.2809" style="stroke:#181818;stroke-width:1.0;"/><line style="stroke:#181818;stroke-width:1.0;" x1="136.5" x2="136.5" y1="851.657" y2="871.657"/><polygon fill="#181818" points="132.5,861.657,136.5,871.657,140.5,861.657,136.5,865.657" style="stroke:#181818;stroke-width:1.0;"/><line style="stroke:#181818;stroke-width:1.0;" x1="136.5" x2="136.5" y1="909.0331" y2="929.0331"/><polygon fill="#181818" points="132.5,919.0331,136.5,929.0331,140.5,919.0331,136.5,923.0331" style="stroke:#181818;stroke-width:1.0;"/><line style="stroke:#181818;stroke-width:1.0;" x1="136.5" x2="136.5" y1="966.4092" y2="986.4092"/><polygon fill="#181818" points="132.5,976.4092,136.5,986.4092,140.5,976.4092,136.5,980.4092" style="stroke:#181818;stroke-width:1.0;"/><!--SRC=[dP2nJiCm54LtVyKTsrz8XeecI8mTMdL038_ajNcIiIFxXIX_ZnqP4O4Om9FjTttEbLNKCfxy38aWw1GS_0qjlt5qZD7Imlt1cAWKr9Zgo7TnUEXKlCDfeCYrCO579ZL8gpgb5v_pXa9VbodcGP9fjy-YtVDLh1Lt1xaUz6hvPP_WZ-dm3Ls4nsdvtNOEJ74A_5VV5fG5_wcxBLQwDfR9uJ9-tRSIkyG6MRjA8b9io2mVyZR_yfeBDECcxrnIwjTKNLm_m57zQ3u0]--></g></svg>