<?xml version="1.0" encoding="us-ascii" standalone="no"?><svg xmlns="http://www.w3.org/2000/svg" xmlns:xlink="http://www.w3.org/1999/xlink" contentStyleType="text/css" height="1103px" preserveAspectRatio="none" style="width:273px;height:1103px;background:#FFFFFF;" version="1.1" viewBox="0 0 273 1103" width="273px" zoomAndPan="magnify"><defs/><g><text fill="#000000" font-family="sans-serif" font-size="14" font-weight="bold" lengthAdjust="spacing" textLength="230" x="20" y="36.2399">How is a turn of Demesne played?</text><ellipse cx="136.5" cy="61.2719" fill="#222222" rx="10" ry="10" style="stroke:#222222;stroke-width:1.0;"/><rect fill="none" height="292.4003" style="stroke:#000000;stroke-width:1.5;" width="180" x="62.5" y="81.2719"/><path d="M158.5,81.2719 L158.5,94.5438 L148.5,104.5438 L62.5,104.5438 " fill="none" style="stroke:#000000;stroke-width:1.5;"/><text fill="#000000" font-family="sans-serif" font-size="14" lengthAdjust="spacing" textLength="86" x="65.5" y="98.5118">Action Phase</text><rect fill="#F1F1F1" height="37.3761" rx="12.5" ry="12.5" style="stroke:#181818;stroke-width:0.5;" width="128" x="72.5" y="121.5438"/><text fill="#000000" font-family="sans-serif" font-size="12" lengthAdjust="spacing" textLength="108" x="82.5" y="145.4639">Begin Action Phase</text><rect fill="#F1F1F1" height="37.3761" rx="12.5" ry="12.5" style="stroke:#181818;stroke-width:0.5;" width="112" x="80.5" y="222.9199"/><text fill="#000000" font-family="sans-serif" font-size="12" lengthAdjust="spacing" textLength="92" x="90.5" y="246.84">Play Action Card</text><polygon fill="#F1F1F1" points="136.5,178.9199,148.5,190.9199,136.5,202.9199,124.5,190.9199,136.5,178.9199" style="stroke:#181818;stroke-width:0.5;"/><polygon fill="#F1F1F1" points="136.5,280.2961,136.5,280.2961,148.5,292.2961,136.5,304.2961,136.5,304.2961,124.5,292.2961,136.5,280.2961" style="stroke:#181818;stroke-width:0.5;"/><text fill="#000000" font-family="sans-serif" font-size="11" lengthAdjust="spacing" textLength="89" x="148.5" y="289.1281">[Willing and able]</text><rect fill="#F1F1F1" height="37.3761" rx="12.5" ry="12.5" style="stroke:#181818;stroke-width:0.5;" width="117" x="78" y="324.2961"/><text fill="#000000" font-family="sans-serif" font-size="12" lengthAdjust="spacing" textLength="97" x="88" y="348.2162">End Action Phase</text><rect fill="none" height="437.7764" style="stroke:#000000;stroke-width:1.5;" width="180" x="62.5" y="383.6722"/><path d="M141.5,383.6722 L141.5,396.9441 L131.5,406.9441 L62.5,406.9441 " fill="none" style="stroke:#000000;stroke-width:1.5;"/><text fill="#000000" font-family="sans-serif" font-size="14" lengthAdjust="spacing" textLength="69" x="65.5" y="400.9121">Buy Phase</text><rect fill="#F1F1F1" height="37.3761" rx="12.5" ry="12.5" style="stroke:#181818;stroke-width:0.5;" width="114" x="79.5" y="423.9441"/><text fill="#000000" font-family="sans-serif" font-size="12" lengthAdjust="spacing" textLength="94" x="89.5" y="447.8642">Begin Buy Phase</text><rect fill="#F1F1F1" height="37.3761" rx="12.5" ry="12.5" style="stroke:#181818;stroke-width:0.5;" width="128" x="72.5" y="525.3202"/><text fill="#000000" font-family="sans-serif" font-size="12" lengthAdjust="spacing" textLength="108" x="82.5" y="549.2403">Play Treasure Card</text><polygon fill="#F1F1F1" points="136.5,481.3202,148.5,493.3202,136.5,505.3202,124.5,493.3202,136.5,481.3202" style="stroke:#181818;stroke-width:0.5;"/><polygon fill="#F1F1F1" points="136.5,582.6963,136.5,582.6963,148.5,594.6963,136.5,606.6963,136.5,606.6963,124.5,594.6963,136.5,582.6963" style="stroke:#181818;stroke-width:0.5;"/><text fill="#000000" font-family="sans-serif" font-size="11" lengthAdjust="spacing" textLength="89" x="148.5" y="591.5284">[Willing and able]</text><rect fill="#F1F1F1" height="37.3761" rx="12.5" ry="12.5" style="stroke:#181818;stroke-width:0.5;" width="71" x="101" y="670.6963"/><text fill="#000000" font-family="sans-serif" font-size="12" lengthAdjust="spacing" textLength="51" x="111" y="694.6164">Buy Card</text><polygon fill="#F1F1F1" points="136.5,626.6963,148.5,638.6963,136.5,650.6963,124.5,638.6963,136.5,626.6963" style="stroke:#181818;stroke-width:0.5;"/><polygon fill="#F1F1F1" points="136.5,728.0725,136.5,728.0725,148.5,740.0725,136.5,752.0725,136.5,752.0725,124.5,740.0725,136.5,728.0725" style="stroke:#181818;stroke-width:0.5;"/><text fill="#000000" font-family="sans-serif" font-size="11" lengthAdjust="spacing" textLength="89" x="148.5" y="736.9045">[Willing and able]</text><rect fill="#F1F1F1" height="37.3761" rx="12.5" ry="12.5" style="stroke:#181818;stroke-width:0.5;" width="103" x="85" y="772.0725"/><text fill="#000000" font-family="sans-serif" font-size="12" lengthAdjust="spacing" textLength="83" x="95" y="795.9926">End Buy Phase</text><rect fill="#F1F1F1" height="37.3761" rx="12.5" ry="12.5" style="stroke:#181818;stroke-width:0.5;" width="144" x="64.5" y="841.4486"/><text fill="#000000" font-family="sans-serif" font-size="12" lengthAdjust="spacing" textLength="124" x="74.5" y="865.3687">Begin Clean Up Phase</text><rect fill="#F1F1F1" height="37.3761" rx="12.5" ry="12.5" style="stroke:#181818;stroke-width:0.5;" width="212" x="30.5" y="898.8247"/><text fill="#000000" font-family="sans-serif" font-size="12" lengthAdjust="spacing" textLength="192" x="40.5" y="922.7448">Discard all Cards in hand or in play</text><rect fill="#F1F1F1" height="37.3761" rx="12.5" ry="12.5" style="stroke:#181818;stroke-width:0.5;" width="155" x="59" y="956.2008"/><text fill="#000000" font-family="sans-serif" font-size="12" lengthAdjust="spacing" textLength="135" x="69" y="980.1209">Draw five Cards to hand</text><rect fill="#F1F1F1" height="37.3761" rx="12.5" ry="12.5" style="stroke:#181818;stroke-width:0.5;" width="133" x="70" y="1013.577"/><text fill="#000000" font-family="sans-serif" font-size="12" lengthAdjust="spacing" textLength="113" x="80" y="1037.497">End Clean Up Phase</text><ellipse cx="136.5" cy="1081.9531" fill="none" rx="11" ry="11" style="stroke:#222222;stroke-width:1.0;"/><ellipse cx="136.5" cy="1081.9531" fill="#222222" rx="6" ry="6" style="stroke:#111111;stroke-width:1.0;"/><line style="stroke:#181818;stroke-width:1.0;" x1="136.5" x2="136.5" y1="202.9199" y2="222.9199"/><polygon fill="#181818" points="132.5,212.9199,136.5,222.9199,140.5,212.9199,136.5,216.9199" style="stroke:#181818;stroke-width:1.0;"/><line style="stroke:#181818;stroke-width:1.0;" x1="148.5" x2="204.5" y1="292.2961" y2="292.2961"/><polygon fill="#181818" points="200.5,251.608,204.5,241.608,208.5,251.608,204.5,247.608" style="stroke:#181818;stroke-width:1.0;"/><line style="stroke:#181818;stroke-width:1.0;" x1="204.5" x2="204.5" y1="190.9199" y2="292.2961"/><line style="stroke:#181818;stroke-width:1.0;" x1="204.5" x2="148.5" y1="190.9199" y2="190.9199"/><polygon fill="#181818" points="158.5,186.9199,148.5,190.9199,158.5,194.9199,154.5,190.9199" style="stroke:#181818;stroke-width:1.0;"/><line style="stroke:#181818;stroke-width:1.0;" x1="136.5" x2="136.5" y1="260.2961" y2="280.2961"/><polygon fill="#181818" points="132.5,270.2961,136.5,280.2961,140.5,270.2961,136.5,274.2961" style="stroke:#181818;stroke-width:1.0;"/><line style="stroke:#181818;stroke-width:1.0;" x1="136.5" x2="136.5" y1="158.9199" y2="178.9199"/><polygon fill="#181818" points="132.5,168.9199,136.5,178.9199,140.5,168.9199,136.5,172.9199" style="stroke:#181818;stroke-width:1.0;"/><line style="stroke:#181818;stroke-width:1.0;" x1="136.5" x2="136.5" y1="304.2961" y2="324.2961"/><polygon fill="#181818" points="132.5,314.2961,136.5,324.2961,140.5,314.2961,136.5,318.2961" style="stroke:#181818;stroke-width:1.0;"/><line style="stroke:#181818;stroke-width:1.0;" x1="136.5" x2="136.5" y1="71.2719" y2="121.5438"/><polygon fill="#181818" points="132.5,111.5438,136.5,121.5438,140.5,111.5438,136.5,115.5438" style="stroke:#181818;stroke-width:1.0;"/><line style="stroke:#181818;stroke-width:1.0;" x1="136.5" x2="136.5" y1="505.3202" y2="525.3202"/><polygon fill="#181818" points="132.5,515.3202,136.5,525.3202,140.5,515.3202,136.5,519.3202" style="stroke:#181818;stroke-width:1.0;"/><line style="stroke:#181818;stroke-width:1.0;" x1="148.5" x2="212.5" y1="594.6963" y2="594.6963"/><polygon fill="#181818" points="208.5,554.0083,212.5,544.0083,216.5,554.0083,212.5,550.0083" style="stroke:#181818;stroke-width:1.0;"/><line style="stroke:#181818;stroke-width:1.0;" x1="212.5" x2="212.5" y1="493.3202" y2="594.6963"/><line style="stroke:#181818;stroke-width:1.0;" x1="212.5" x2="148.5" y1="493.3202" y2="493.3202"/><polygon fill="#181818" points="158.5,489.3202,148.5,493.3202,158.5,497.3202,154.5,493.3202" style="stroke:#181818;stroke-width:1.0;"/><line style="stroke:#181818;stroke-width:1.0;" x1="136.5" x2="136.5" y1="562.6963" y2="582.6963"/><polygon fill="#181818" points="132.5,572.6963,136.5,582.6963,140.5,572.6963,136.5,576.6963" style="stroke:#181818;stroke-width:1.0;"/><line style="stroke:#181818;stroke-width:1.0;" x1="136.5" x2="136.5" y1="461.3202" y2="481.3202"/><polygon fill="#181818" points="132.5,471.3202,136.5,481.3202,140.5,471.3202,136.5,475.3202" style="stroke:#181818;stroke-width:1.0;"/><line style="stroke:#181818;stroke-width:1.0;" x1="136.5" x2="136.5" y1="650.6963" y2="670.6963"/><polygon fill="#181818" points="132.5,660.6963,136.5,670.6963,140.5,660.6963,136.5,664.6963" style="stroke:#181818;stroke-width:1.0;"/><line style="stroke:#181818;stroke-width:1.0;" x1="148.5" x2="184" y1="740.0725" y2="740.0725"/><polygon fill="#181818" points="180,699.3844,184,689.3844,188,699.3844,184,695.3844" style="stroke:#181818;stroke-width:1.0;"/><line style="stroke:#181818;stroke-width:1.0;" x1="184" x2="184" y1="638.6963" y2="740.0725"/><line style="stroke:#181818;stroke-width:1.0;" x1="184" x2="148.5" y1="638.6963" y2="638.6963"/><polygon fill="#181818" points="158.5,634.6963,148.5,638.6963,158.5,642.6963,154.5,638.6963" style="stroke:#181818;stroke-width:1.0;"/><line style="stroke:#181818;stroke-width:1.0;" x1="136.5" x2="136.5" y1="708.0725" y2="728.0725"/><polygon fill="#181818" points="132.5,718.0725,136.5,728.0725,140.5,718.0725,136.5,722.0725" style="stroke:#181818;stroke-width:1.0;"/><line style="stroke:#181818;stroke-width:1.0;" x1="136.5" x2="136.5" y1="606.6963" y2="626.6963"/><polygon fill="#181818" points="132.5,616.6963,136.5,626.6963,140.5,616.6963,136.5,620.6963" style="stroke:#181818;stroke-width:1.0;"/><line style="stroke:#181818;stroke-width:1.0;" x1="136.5" x2="136.5" y1="752.0725" y2="772.0725"/><polygon fill="#181818" points="132.5,762.0725,136.5,772.0725,140.5,762.0725,136.5,766.0725" style="stroke:#181818;stroke-width:1.0;"/><line style="stroke:#181818;stroke-width:1.0;" x1="136.5" x2="136.5" y1="361.6722" y2="423.9441"/><polygon fill="#181818" points="132.5,413.9441,136.5,423.9441,140.5,413.9441,136.5,417.9441" style="stroke:#181818;stroke-width:1.0;"/><line style="stroke:#181818;stroke-width:1.0;" x1="136.5" x2="136.5" y1="809.4486" y2="841.4486"/><polygon fill="#181818" points="132.5,831.4486,136.5,841.4486,140.5,831.4486,136.5,835.4486" style="stroke:#181818;stroke-width:1.0;"/><line style="stroke:#181818;stroke-width:1.0;" x1="136.5" x2="136.5" y1="878.8247" y2="898.8247"/><polygon fill="#181818" points="132.5,888.8247,136.5,898.8247,140.5,888.8247,136.5,892.8247" style="stroke:#181818;stroke-width:1.0;"/><line style="stroke:#181818;stroke-width:1.0;" x1="136.5" x2="136.5" y1="936.2008" y2="956.2008"/><polygon fill="#181818" points="132.5,946.2008,136.5,956.2008,140.5,946.2008,136.5,950.2008" style="stroke:#181818;stroke-width:1.0;"/><line style="stroke:#181818;stroke-width:1.0;" x1="136.5" x2="136.5" y1="993.577" y2="1013.577"/><polygon fill="#181818" points="132.5,1003.577,136.5,1013.577,140.5,1003.577,136.5,1007.577" style="stroke:#181818;stroke-width:1.0;"/><line style="stroke:#181818;stroke-width:1.0;" x1="136.5" x2="136.5" y1="1050.9531" y2="1070.9531"/><polygon fill="#181818" points="132.5,1060.9531,136.5,1070.9531,140.5,1060.9531,136.5,1064.9531" style="stroke:#181818;stroke-width:1.0;"/><!--SRC=[dP6nRiCm34HtVSMDoIyuGz4a1JfcQD2XwC36J4n0bGI9hX4K_VTIHceuIASi4aKUxXuX5VMCvpX02WZQvu1un9O_kGH6ydJczi6vefJLkMIdgCI0nyDuxJegZ6y7D6i-oNL_vQoVEJ6f5IRPcTsVOaEvNKrp39qOo69PEHPlh-AzX1CejA0Fp-_BQjKysVCwu6VEjExFjq1Jyt-QbynK-iptyCpDQiozAyqGRPyBzyOp1UpJ1DzifHmi0UJz65LWigxwnLpB-bcZBjE0etpnHQLnLDLHJRinBXgJ-mK0]--></g></svg>