<?xml version="1.0" encoding="us-ascii" standalone="no"?><svg xmlns="http://www.w3.org/2000/svg" xmlns:xlink="http://www.w3.org/1999/xlink" contentStyleType="text/css" height="1061px" preserveAspectRatio="none" style="width:273px;height:1061px;background:#FFFFFF;" version="1.1" viewBox="0 0 273 1061" width="273px" zoomAndPan="magnify"><defs/><g><text fill="#000000" font-family="sans-serif" font-size="14" font-weight="bold" lengthAdjust="spacing" textLength="230" x="20" y="36.2399">How is a turn of Demesne played?</text><ellipse cx="136.5" cy="61.2719" fill="#222222" rx="10" ry="10" style="stroke:#222222;stroke-width:1.0;"/><rect fill="none" height="292.4003" style="stroke:#000000;stroke-width:1.5;" width="180" x="62.5" y="81.2719"/><path d="M158.5,81.2719 L158.5,94.5438 L148.5,104.5438 L62.5,104.5438 " fill="none" style="stroke:#000000;stroke-width:1.5;"/><text fill="#000000" font-family="sans-serif" font-size="14" lengthAdjust="spacing" textLength="86" x="65.5" y="98.5118">Action Phase</text><rect fill="#F1F1F1" height="37.3761" rx="12.5" ry="12.5" style="stroke:#181818;stroke-width:0.5;" width="128" x="72.5" y="121.5438"/><text fill="#000000" font-family="sans-serif" font-size="12" lengthAdjust="spacing" textLength="108" x="82.5" y="145.4639">Begin Action Phase</text><rect fill="#F1F1F1" height="37.3761" rx="12.5" ry="12.5" style="stroke:#181818;stroke-width:0.5;" width="112" x="80.5" y="222.9199"/><text fill="#000000" font-family="sans-serif" font-size="12" lengthAdjust="spacing" textLength="92" x="90.5" y="246.84">Play Action Card</text><polygon fill="#F1F1F1" points="136.5,178.9199,148.5,190.9199,136.5,202.9199,124.5,190.9199,136.5,178.9199" style="stroke:#181818;stroke-width:0.5;"/><polygon fill="#F1F1F1" points="136.5,280.2961,136.5,280.2961,148.5,292.2961,136.5,304.2961,136.5,304.2961,124.5,292.2961,136.5,280.2961" style="stroke:#181818;stroke-width:0.5;"/><text fill="#000000" font-family="sans-serif" font-size="11" lengthAdjust="spacing" textLength="89" x="148.5" y="289.1281">[Willing and able]</text><rect fill="#F1F1F1" height="37.3761" rx="12.5" ry="12.5" style="stroke:#181818;stroke-width:0.5;" width="117" x="78" y="324.2961"/><text fill="#000000" font-family="sans-serif" font-size="12" lengthAdjust="spacing" textLength="97" x="88" y="348.2162">End Action Phase</text><rect fill="#F1F1F1" height="37.3761" rx="12.5" ry="12.5" style="stroke:#181818;stroke-width:0.5;" width="114" x="79.5" y="393.6722"/><text fill="#000000" font-family="sans-serif" font-size="12" lengthAdjust="spacing" textLength="94" x="89.5" y="417.5923">Begin Buy Phase</text><rect fill="#F1F1F1" height="37.3761" rx="12.5" ry="12.5" style="stroke:#181818;stroke-width:0.5;" width="128" x="72.5" y="495.0483"/><text fill="#000000" font-family="sans-serif" font-size="12" lengthAdjust="spacing" textLength="108" x="82.5" y="518.9684">Play Treasure Card</text><polygon fill="#F1F1F1" points="136.5,451.0483,148.5,463.0483,136.5,475.0483,124.5,463.0483,136.5,451.0483" style="stroke:#181818;stroke-width:0.5;"/><polygon fill="#F1F1F1" points="136.5,552.4244,136.5,552.4244,148.5,564.4244,136.5,576.4244,136.5,576.4244,124.5,564.4244,136.5,552.4244" style="stroke:#181818;stroke-width:0.5;"/><text fill="#000000" font-family="sans-serif" font-size="11" lengthAdjust="spacing" textLength="89" x="148.5" y="561.2565">[Willing and able]</text><rect fill="#F1F1F1" height="37.3761" rx="12.5" ry="12.5" style="stroke:#181818;stroke-width:0.5;" width="71" x="101" y="640.4244"/><text fill="#000000" font-family="sans-serif" font-size="12" lengthAdjust="spacing" textLength="51" x="111" y="664.3445">Buy Card</text><polygon fill="#F1F1F1" points="136.5,596.4244,148.5,608.4244,136.5,620.4244,124.5,608.4244,136.5,596.4244" style="stroke:#181818;stroke-width:0.5;"/><polygon fill="#F1F1F1" points="136.5,697.8006,136.5,697.8006,148.5,709.8006,136.5,721.8006,136.5,721.8006,124.5,709.8006,136.5,697.8006" style="stroke:#181818;stroke-width:0.5;"/><text fill="#000000" font-family="sans-serif" font-size="11" lengthAdjust="spacing" textLength="89" x="148.5" y="706.6326">[Willing and able]</text><rect fill="#F1F1F1" height="37.3761" rx="12.5" ry="12.5" style="stroke:#181818;stroke-width:0.5;" width="103" x="85" y="741.8006"/><text fill="#000000" font-family="sans-serif" font-size="12" lengthAdjust="spacing" textLength="83" x="95" y="765.7206">End Buy Phase</text><rect fill="#F1F1F1" height="37.3761" rx="12.5" ry="12.5" style="stroke:#181818;stroke-width:0.5;" width="144" x="64.5" y="799.1767"/><text fill="#000000" font-family="sans-serif" font-size="12" lengthAdjust="spacing" textLength="124" x="74.5" y="823.0968">Begin Clean Up Phase</text><rect fill="#F1F1F1" height="37.3761" rx="12.5" ry="12.5" style="stroke:#181818;stroke-width:0.5;" width="212" x="30.5" y="856.5528"/><text fill="#000000" font-family="sans-serif" font-size="12" lengthAdjust="spacing" textLength="192" x="40.5" y="880.4729">Discard all Cards in hand or in play</text><rect fill="#F1F1F1" height="37.3761" rx="12.5" ry="12.5" style="stroke:#181818;stroke-width:0.5;" width="155" x="59" y="913.9289"/><text fill="#000000" font-family="sans-serif" font-size="12" lengthAdjust="spacing" textLength="135" x="69" y="937.849">Draw five Cards to hand</text><rect fill="#F1F1F1" height="37.3761" rx="12.5" ry="12.5" style="stroke:#181818;stroke-width:0.5;" width="133" x="70" y="971.305"/><text fill="#000000" font-family="sans-serif" font-size="12" lengthAdjust="spacing" textLength="113" x="80" y="995.2251">End Clean Up Phase</text><ellipse cx="136.5" cy="1039.6812" fill="none" rx="11" ry="11" style="stroke:#222222;stroke-width:1.0;"/><ellipse cx="136.5" cy="1039.6812" fill="#222222" rx="6" ry="6" style="stroke:#111111;stroke-width:1.0;"/><line style="stroke:#181818;stroke-width:1.0;" x1="136.5" x2="136.5" y1="202.9199" y2="222.9199"/><polygon fill="#181818" points="132.5,212.9199,136.5,222.9199,140.5,212.9199,136.5,216.9199" style="stroke:#181818;stroke-width:1.0;"/><line style="stroke:#181818;stroke-width:1.0;" x1="148.5" x2="204.5" y1="292.2961" y2="292.2961"/><polygon fill="#181818" points="200.5,251.608,204.5,241.608,208.5,251.608,204.5,247.608" style="stroke:#181818;stroke-width:1.0;"/><line style="stroke:#181818;stroke-width:1.0;" x1="204.5" x2="204.5" y1="190.9199" y2="292.2961"/><line style="stroke:#181818;stroke-width:1.0;" x1="204.5" x2="148.5" y1="190.9199" y2="190.9199"/><polygon fill="#181818" points="158.5,186.9199,148.5,190.9199,158.5,194.9199,154.5,190.9199" style="stroke:#181818;stroke-width:1.0;"/><line style="stroke:#181818;stroke-width:1.0;" x1="136.5" x2="136.5" y1="260.2961" y2="280.2961"/><polygon fill="#181818" points="132.5,270.2961,136.5,280.2961,140.5,270.2961,136.5,274.2961" style="stroke:#181818;stroke-width:1.0;"/><line style="stroke:#181818;stroke-width:1.0;" x1="136.5" x2="136.5" y1="158.9199" y2="178.9199"/><polygon fill="#181818" points="132.5,168.9199,136.5,178.9199,140.5,168.9199,136.5,172.9199" style="stroke:#181818;stroke-width:1.0;"/><line style="stroke:#181818;stroke-width:1.0;" x1="136.5" x2="136.5" y1="304.2961" y2="324.2961"/><polygon fill="#181818" points="132.5,314.2961,136.5,324.2961,140.5,314.2961,136.5,318.2961" style="stroke:#181818;stroke-width:1.0;"/><line style="stroke:#181818;stroke-width:1.0;" x1="136.5" x2="136.5" y1="71.2719" y2="121.5438"/><polygon fill="#181818" points="132.5,111.5438,136.5,121.5438,140.5,111.5438,136.5,115.5438" style="stroke:#181818;stroke-width:1.0;"/><line style="stroke:#181818;stroke-width:1.0;" x1="136.5" x2="136.5" y1="361.6722" y2="393.6722"/><polygon fill="#181818" points="132.5,383.6722,136.5,393.6722,140.5,383.6722,136.5,387.6722" style="stroke:#181818;stroke-width:1.0;"/><line style="stroke:#181818;stroke-width:1.0;" x1="136.5" x2="136.5" y1="475.0483" y2="495.0483"/><polygon fill="#181818" points="132.5,485.0483,136.5,495.0483,140.5,485.0483,136.5,489.0483" style="stroke:#181818;stroke-width:1.0;"/><line style="stroke:#181818;stroke-width:1.0;" x1="148.5" x2="212.5" y1="564.4244" y2="564.4244"/><polygon fill="#181818" points="208.5,523.7364,212.5,513.7364,216.5,523.7364,212.5,519.7364" style="stroke:#181818;stroke-width:1.0;"/><line style="stroke:#181818;stroke-width:1.0;" x1="212.5" x2="212.5" y1="463.0483" y2="564.4244"/><line style="stroke:#181818;stroke-width:1.0;" x1="212.5" x2="148.5" y1="463.0483" y2="463.0483"/><polygon fill="#181818" points="158.5,459.0483,148.5,463.0483,158.5,467.0483,154.5,463.0483" style="stroke:#181818;stroke-width:1.0;"/><line style="stroke:#181818;stroke-width:1.0;" x1="136.5" x2="136.5" y1="532.4244" y2="552.4244"/><polygon fill="#181818" points="132.5,542.4244,136.5,552.4244,140.5,542.4244,136.5,546.4244" style="stroke:#181818;stroke-width:1.0;"/><line style="stroke:#181818;stroke-width:1.0;" x1="136.5" x2="136.5" y1="431.0483" y2="451.0483"/><polygon fill="#181818" points="132.5,441.0483,136.5,451.0483,140.5,441.0483,136.5,445.0483" style="stroke:#181818;stroke-width:1.0;"/><line style="stroke:#181818;stroke-width:1.0;" x1="136.5" x2="136.5" y1="620.4244" y2="640.4244"/><polygon fill="#181818" points="132.5,630.4244,136.5,640.4244,140.5,630.4244,136.5,634.4244" style="stroke:#181818;stroke-width:1.0;"/><line style="stroke:#181818;stroke-width:1.0;" x1="148.5" x2="184" y1="709.8006" y2="709.8006"/><polygon fill="#181818" points="180,669.1125,184,659.1125,188,669.1125,184,665.1125" style="stroke:#181818;stroke-width:1.0;"/><line style="stroke:#181818;stroke-width:1.0;" x1="184" x2="184" y1="608.4244" y2="709.8006"/><line style="stroke:#181818;stroke-width:1.0;" x1="184" x2="148.5" y1="608.4244" y2="608.4244"/><polygon fill="#181818" points="158.5,604.4244,148.5,608.4244,158.5,612.4244,154.5,608.4244" style="stroke:#181818;stroke-width:1.0;"/><line style="stroke:#181818;stroke-width:1.0;" x1="136.5" x2="136.5" y1="677.8006" y2="697.8006"/><polygon fill="#181818" points="132.5,687.8006,136.5,697.8006,140.5,687.8006,136.5,691.8006" style="stroke:#181818;stroke-width:1.0;"/><line style="stroke:#181818;stroke-width:1.0;" x1="136.5" x2="136.5" y1="576.4244" y2="596.4244"/><polygon fill="#181818" points="132.5,586.4244,136.5,596.4244,140.5,586.4244,136.5,590.4244" style="stroke:#181818;stroke-width:1.0;"/><line style="stroke:#181818;stroke-width:1.0;" x1="136.5" x2="136.5" y1="721.8006" y2="741.8006"/><polygon fill="#181818" points="132.5,731.8006,136.5,741.8006,140.5,731.8006,136.5,735.8006" style="stroke:#181818;stroke-width:1.0;"/><line style="stroke:#181818;stroke-width:1.0;" x1="136.5" x2="136.5" y1="779.1767" y2="799.1767"/><polygon fill="#181818" points="132.5,789.1767,136.5,799.1767,140.5,789.1767,136.5,793.1767" style="stroke:#181818;stroke-width:1.0;"/><line style="stroke:#181818;stroke-width:1.0;" x1="136.5" x2="136.5" y1="836.5528" y2="856.5528"/><polygon fill="#181818" points="132.5,846.5528,136.5,856.5528,140.5,846.5528,136.5,850.5528" style="stroke:#181818;stroke-width:1.0;"/><line style="stroke:#181818;stroke-width:1.0;" x1="136.5" x2="136.5" y1="893.9289" y2="913.9289"/><polygon fill="#181818" points="132.5,903.9289,136.5,913.9289,140.5,903.9289,136.5,907.9289" style="stroke:#181818;stroke-width:1.0;"/><line style="stroke:#181818;stroke-width:1.0;" x1="136.5" x2="136.5" y1="951.305" y2="971.305"/><polygon fill="#181818" points="132.5,961.305,136.5,971.305,140.5,961.305,136.5,965.305" style="stroke:#181818;stroke-width:1.0;"/><line style="stroke:#181818;stroke-width:1.0;" x1="136.5" x2="136.5" y1="1008.6812" y2="1028.6812"/><polygon fill="#181818" points="132.5,1018.6812,136.5,1028.6812,140.5,1018.6812,136.5,1022.6812" style="stroke:#181818;stroke-width:1.0;"/><!--SRC=[bP6nRW8n44Jx_OejuHUu8WeGAIL5K8g8OiCjt4gERTbxEI6KVy_QSWY89cdizNWyRoIhg6Dy3XDAHa8TayTmm3L_SFQCqT69-mU0h9GK8DegAi7Zuxvkcu4ounaG5qi-ogtUWUc98vFQO9QDnVquLfJwxdAFqo1MP3OlFMPlh-AS-2EIxv7U7U_c9MhnPCTRm1T00o_7quLwntn9J7bCtAX_Pbu75S0_dzV2ryLQrvLZyhYDl_fQyjwoaPoha8nc6qfMI6Ki7r5zYIOyo2StbuRgwXhhBZXhYF0D]--></g></svg>